<svg version="1.1" id="Layer_1" xmlns="http://www.w3.org/2000/svg" xmlns:xlink="http://www.w3.org/1999/xlink" x="0px" y="0px"
	 width="100%" viewBox="0 0 500 500" enable-background="new 0 0 500 500" xml:space="preserve">
<path fill="#000000" opacity="1.000000" stroke="none" 
	d="
M246.000000,501.000000 
	C164.000015,501.000000 82.500038,501.000000 1.000044,501.000000 
	C1.000029,334.333405 1.000029,167.666779 1.000015,1.000133 
	C167.666565,1.000089 334.333130,1.000089 500.999756,1.000044 
	C500.999847,167.666519 500.999847,334.333038 500.999939,500.999786 
	C416.166656,501.000000 331.333344,501.000000 246.000000,501.000000 
M222.000122,311.000519 
	C222.000122,311.000519 222.038177,310.973145 221.854553,310.498657 
	C221.572540,310.325958 221.290527,310.153229 220.998642,310.000000 
	C220.998642,310.000000 221.015900,309.987885 220.750198,309.353333 
	C219.507828,308.893829 218.265442,308.434357 217.000000,308.000000 
	C217.000000,308.000000 217.026672,307.979004 216.868820,307.510529 
	C216.654968,307.159485 216.367462,307.082153 215.356186,307.161041 
	C214.921310,307.214142 214.486450,307.267212 213.453171,307.171509 
	C212.775436,307.514923 212.097702,307.858337 211.258499,308.283600 
	C212.324600,308.925262 213.153290,309.424072 214.077713,310.735352 
	C214.051910,311.824097 214.026093,312.912842 213.326614,313.804169 
	C209.511459,308.720612 206.704544,307.517212 202.142075,309.124359 
	C203.084045,310.450562 204.009415,311.753357 204.933090,312.998718 
	C204.933090,312.998718 204.883118,313.027924 204.949036,313.722748 
	C205.295731,314.499664 205.642426,315.276550 206.094299,316.475403 
	C206.094299,316.475403 206.159912,316.905304 205.359497,317.033905 
	C204.601440,316.613586 203.411118,316.371704 203.152573,315.745239 
	C200.725388,309.864288 199.054688,308.749573 193.084793,309.310974 
	C194.046387,310.872650 195.148117,312.405365 195.952194,314.080933 
	C196.328979,314.866119 196.131485,315.926910 196.194260,316.862793 
	C195.454376,316.281342 194.332535,315.847778 194.040222,315.092987 
	C192.721512,311.687927 190.049393,308.849518 186.908127,310.486511 
	C184.589325,311.694885 183.109253,311.243164 181.118134,311.103699 
	C180.114182,311.033356 179.060150,311.677948 177.482086,312.664062 
	C176.669830,312.435760 175.857574,312.207489 174.721710,311.384033 
	C172.488510,311.045990 170.255325,310.707977 167.726410,310.325195 
	C167.726410,311.629425 167.726410,313.094971 167.726410,314.560547 
	C167.399734,314.664612 167.073059,314.768707 166.746384,314.872772 
	C165.988708,312.395874 165.231049,309.918976 164.473389,307.442078 
	C164.134705,307.537659 163.796021,307.633240 163.457321,307.728851 
	C163.106049,308.998596 162.754761,310.268311 162.403473,311.538055 
	C162.124252,311.523499 161.845032,311.508911 161.565811,311.494354 
	C161.185928,309.242584 160.806046,306.990845 160.382828,304.482269 
	C158.962280,305.542725 157.968674,306.284424 156.928055,306.276703 
	C157.997955,301.626160 153.780014,301.943146 151.546188,299.994690 
	C150.603348,304.983215 151.331512,308.118103 156.521774,307.389984 
	C155.939911,308.228790 155.358063,309.067596 154.456650,310.367096 
	C156.119324,311.843658 157.697845,313.865387 159.769302,314.904144 
	C161.696793,315.870667 164.149353,315.790131 166.515762,316.195374 
	C165.595535,317.060760 164.913513,317.702148 164.231476,318.343536 
	C164.967697,318.883545 165.633423,319.600891 166.454544,319.927338 
	C168.271286,320.649658 170.166138,321.175507 172.490799,321.913818 
	C172.490799,321.913818 172.955826,322.033722 173.109802,322.498199 
	C173.430771,322.346252 173.751724,322.194275 174.530914,321.948578 
	C174.530914,321.948578 174.977524,321.809723 175.738495,321.948792 
	C176.435104,320.959259 177.131714,319.969757 178.070633,318.469269 
	C178.373962,318.254608 178.677277,318.039978 179.689102,317.992249 
	C179.911880,319.541107 180.134674,321.089966 180.448898,323.274658 
	C181.734146,322.738281 183.547379,322.232361 185.067841,321.265869 
	C186.239716,320.520935 187.043777,319.197418 188.011383,318.131134 
	C188.558868,319.494629 189.106369,320.858124 189.492783,321.820465 
	C191.866776,320.333344 194.325592,318.793091 196.784393,317.252869 
	C197.305420,317.799591 197.826462,318.346344 198.347488,318.893097 
	C197.314331,320.734985 196.281189,322.576874 195.237228,324.438019 
	C200.600479,325.093231 203.054703,323.038818 202.685699,317.589661 
	C204.339905,318.118896 205.773376,318.577515 207.081085,319.746246 
	C207.081085,320.681305 207.081085,321.616364 207.081085,322.551422 
	C207.367813,322.655884 207.654541,322.760345 207.941284,322.864838 
	C208.571991,321.578827 209.202698,320.292847 210.064789,318.476257 
	C210.370728,318.251709 210.676666,318.027161 211.668472,317.925507 
	C213.455246,317.563416 215.242035,317.201355 217.691956,317.200684 
	C220.126724,318.579773 222.052536,318.885620 222.554779,315.040955 
	C222.710190,314.673218 222.865601,314.305481 222.960693,313.292297 
	C222.904968,312.864960 222.849228,312.437653 222.859604,311.499176 
	C222.582321,311.320435 222.305038,311.141693 222.000122,311.000519 
M293.000000,274.000000 
	C293.000000,274.000000 292.960144,273.959473 292.451355,274.087036 
	C292.283508,274.380005 292.115631,274.672974 291.997009,274.977386 
	C291.997009,274.977386 291.945984,274.953308 291.223633,275.016724 
	C281.461060,277.898621 278.771362,286.059723 277.178284,295.824707 
	C283.831909,292.560913 290.485565,289.297119 297.842560,285.982208 
	C301.267517,282.669922 304.692444,279.357605 308.738464,275.768341 
	C311.840118,271.875854 314.941772,267.983398 318.680420,263.767426 
	C319.447815,261.571655 320.215179,259.375916 321.550720,256.923004 
	C321.643677,256.548584 321.736603,256.174133 321.957550,255.517303 
	C321.957550,255.517303 321.969849,255.207504 322.594940,254.889328 
	C322.672821,254.223419 322.750671,253.557495 322.965668,252.562607 
	C322.965668,252.562607 322.974640,252.206299 323.681000,251.784622 
	C324.039978,250.383881 324.498077,249.000168 324.742004,247.579681 
	C326.455475,237.599808 327.300659,227.633804 323.958344,217.457626 
	C323.958344,217.457626 323.826172,217.163910 323.975586,216.377747 
	C323.343414,214.539841 322.711212,212.701920 321.771118,210.243027 
	C320.178253,207.447723 318.703552,204.576813 316.972168,201.870132 
	C309.312042,189.895126 300.659058,179.035080 285.316101,174.825867 
	C275.227692,168.613785 264.296021,169.846634 253.275101,171.001114 
	C260.132050,175.626678 267.034973,179.867508 274.218964,183.561798 
	C279.628143,186.343445 285.397583,188.424484 291.640839,191.113281 
	C294.514801,193.617844 298.044037,195.674225 300.127014,198.719803 
	C304.537689,205.168762 308.193726,212.133881 312.009155,219.729843 
	C312.655548,222.845337 313.301971,225.960815 313.974335,229.005508 
	C313.974335,229.005508 313.914642,229.051620 313.982391,229.934906 
	C314.044952,232.318222 314.107513,234.701523 314.027405,237.423843 
	C314.027405,237.423843 314.007080,237.791061 313.293243,238.234100 
	C312.824493,241.473572 312.355713,244.713043 311.247131,248.316589 
	C310.814453,250.181274 310.381744,252.045959 309.315552,254.232376 
	C305.843597,259.142059 302.371643,264.051727 298.312256,269.195618 
	C297.227264,270.184204 296.142273,271.172791 294.514282,272.061859 
	C294.328064,272.357117 294.141846,272.652405 293.996674,272.988831 
	C293.996674,272.988831 293.956482,272.955414 293.451904,273.085480 
	C293.287659,273.377167 293.123413,273.668884 293.000000,274.000000 
M267.549500,298.871399 
	C267.631378,298.553986 267.713226,298.236572 267.929016,297.497192 
	C267.929016,297.497192 268.005096,297.061096 268.633667,296.776886 
	C270.853760,293.233337 273.559570,289.898315 275.189575,286.101471 
	C278.276917,278.909973 277.592346,271.962280 272.000854,265.999115 
	C272.000854,265.999115 272.048523,265.962738 271.790771,265.343933 
	C268.394104,262.216339 265.409058,258.393433 261.522858,256.092682 
	C250.280350,249.436829 238.547470,243.612930 227.254013,237.038254 
	C218.556412,231.974777 208.000229,228.211868 207.945236,214.719238 
	C205.460648,217.610489 203.490952,220.480194 202.175552,223.623688 
	C201.073090,226.258316 200.464508,229.180893 200.130051,232.033752 
	C199.763031,235.164536 199.475357,238.445831 200.008926,241.512665 
	C201.268890,248.754501 206.743011,253.183411 212.307373,256.915405 
	C222.215714,263.560883 232.596146,269.498566 242.704590,275.850891 
	C250.897491,280.999451 257.352753,287.441132 258.224365,297.843414 
	C258.288239,298.605988 259.406158,299.280243 259.808960,300.656250 
	C258.522186,302.568085 257.235443,304.479889 255.948669,306.391724 
	C256.329041,306.803253 256.709442,307.214783 257.089813,307.626343 
	C259.741394,305.444397 262.393005,303.262482 265.011353,301.054840 
	C265.011353,301.054840 265.044647,301.061493 265.561554,300.936066 
	C265.729370,300.638458 265.897186,300.340851 265.997314,300.025604 
	C265.997314,300.025604 266.062073,300.059235 266.562958,299.923981 
	C266.719574,299.628876 266.876160,299.333771 267.002563,299.006317 
	C267.002563,299.006317 267.039825,299.027893 267.549500,298.871399 
M278.945740,315.052460 
	C278.945740,315.052460 279.013367,315.061371 279.028412,315.675629 
	C279.446899,316.336151 279.865356,316.996674 280.394257,317.886200 
	C280.591248,318.063171 280.816742,318.169006 280.664734,318.830383 
	C279.236725,325.043854 280.749817,326.563232 287.788818,325.229248 
	C286.114532,322.969910 284.589966,320.912598 283.305725,318.214874 
	C284.545349,316.167755 285.784943,314.120605 287.652008,311.749359 
	C288.403870,310.376160 289.155762,309.002960 289.907623,307.629761 
	C289.641937,307.180878 289.376221,306.731964 289.110535,306.283051 
	C286.374329,307.510406 283.638153,308.737732 280.292511,310.269318 
	C279.845917,311.491852 279.399323,312.714386 278.532562,314.119507 
	C278.439423,314.239563 278.346283,314.359619 278.253143,314.479675 
	C278.486511,314.647980 278.719849,314.816315 278.945740,315.052460 
M262.895874,181.438629 
	C262.544250,181.345154 262.192596,181.251678 261.523468,181.019531 
	C261.523468,181.019531 261.177399,181.002502 260.935089,180.497192 
	C260.610199,180.400345 260.285278,180.303497 259.324371,180.061035 
	C258.893463,180.005859 258.462585,179.950684 257.852966,179.362564 
	C257.275940,178.905777 256.698914,178.448975 255.767181,177.376343 
	C254.921768,177.145889 254.076340,176.915451 253.025787,176.629089 
	C253.025787,199.835907 253.014862,222.602570 253.071518,245.369064 
	C253.073486,246.162033 253.749557,246.953339 254.668411,248.108704 
	C256.120819,248.990860 257.573212,249.873001 259.648956,251.062637 
	C261.744141,252.369324 263.839355,253.676010 266.191010,255.596649 
	C266.880768,256.193176 267.570496,256.789673 268.342560,257.457397 
	C268.632507,256.856903 268.884125,256.578613 268.884827,256.299713 
	C268.943542,233.383987 269.027954,210.467957 268.898285,187.553162 
	C268.891357,186.329193 267.069183,185.115494 265.830658,183.300598 
	C264.903290,182.839127 263.975922,182.377670 263.023010,181.978714 
	C263.023010,181.978714 263.089294,181.991776 262.895874,181.438629 
M242.235748,322.601471 
	C243.809265,324.079498 245.382782,325.557556 247.028564,327.760040 
	C250.451996,332.273834 251.463348,331.861786 255.170013,327.961731 
	C258.576965,324.377014 263.090942,321.844421 267.645782,319.253632 
	C266.720673,324.712219 269.682617,327.436462 275.443176,326.216492 
	C273.168152,321.824890 271.682159,317.380768 275.641907,312.632996 
	C276.645844,310.660156 277.649780,308.687286 278.653687,306.714447 
	C278.511078,306.287384 278.368469,305.860352 278.225861,305.433319 
	C275.134613,306.598389 272.043396,307.763458 268.482605,309.100891 
	C268.303894,309.373016 268.125183,309.645142 267.295654,310.244720 
	C267.182190,312.185120 267.068726,314.125519 267.014709,316.673553 
	C266.993378,317.078888 266.972076,317.484253 266.173431,317.938995 
	C258.473846,318.527374 255.557571,325.268158 250.846283,330.143280 
	C249.673660,328.788971 248.640289,327.595459 247.186890,325.874664 
	C245.436493,324.611816 243.686081,323.348999 242.202042,321.371796 
	C239.828491,320.198486 237.454941,319.025177 235.002884,317.388489 
	C235.002884,317.388489 234.814697,316.957794 234.926331,316.509949 
	C234.926331,316.509949 235.031403,316.060547 235.643890,315.648499 
	C235.451477,314.061127 235.259064,312.473785 234.887833,310.454956 
	C234.703140,310.183624 234.450821,310.011383 233.945816,309.436432 
	C233.646683,309.262207 233.347549,309.088013 233.033417,308.999420 
	C233.033417,308.999420 233.065414,308.915558 232.679382,308.289490 
	C229.639542,307.430450 226.599686,306.571411 223.559830,305.712372 
	C223.288315,306.287323 223.016800,306.862274 222.745285,307.437256 
	C223.805710,308.313080 224.866119,309.188873 226.049988,310.776794 
	C227.030563,312.847595 228.011124,314.918427 228.507614,317.350403 
	C234.690231,321.789703 226.437653,323.320221 226.711990,326.563477 
	C232.704010,327.216980 234.993927,325.086700 235.657181,319.000214 
	C237.773590,319.997009 239.889999,320.993835 242.235748,322.601471 
M309.177216,312.017670 
	C308.771576,313.116333 308.611023,314.437958 307.880463,315.241028 
	C307.325104,315.851532 306.045105,315.802795 305.707184,315.582367 
	C305.707184,313.771118 305.707184,311.959869 305.707184,310.453003 
	C302.877075,311.370453 300.420868,312.166687 298.003052,312.237915 
	C298.603577,311.016418 299.204132,309.794952 299.804657,308.573486 
	C299.572327,308.194885 299.339966,307.816315 299.107635,307.437744 
	C296.358307,308.501343 293.441254,309.266998 290.899017,310.698395 
	C287.093933,312.840881 289.402283,316.158813 289.954559,318.996368 
	C290.226501,320.393585 290.696136,322.244690 291.713440,322.897583 
	C293.580048,324.095551 295.958710,325.826355 298.602417,322.679901 
	C300.146820,323.104584 301.691254,323.529236 303.218506,323.949158 
	C303.510620,321.825287 303.771637,319.927521 304.002594,318.006744 
	C304.002594,318.006744 304.026978,318.034302 304.873260,318.018463 
	C306.565094,318.043884 308.256958,318.069305 310.029999,318.819977 
	C310.558136,319.931854 311.086243,321.043732 312.058685,323.091125 
	C313.060425,320.621613 313.583557,319.332001 314.707367,318.031189 
	C315.103363,318.079742 315.499359,318.128296 315.930817,318.839661 
	C315.584656,324.592651 319.806946,322.207520 322.483459,322.894684 
	C322.483459,321.059296 322.483459,319.590393 322.483459,316.672424 
	C324.403839,322.663696 326.552917,323.568359 330.144470,321.545685 
	C329.744141,319.940826 329.371490,318.447083 329.223358,317.853241 
	C331.851196,318.645264 334.417297,319.418701 336.983398,320.192108 
	C337.211243,319.573822 337.439117,318.955536 337.666992,318.337250 
	C336.810944,317.870300 335.954865,317.403351 335.476410,316.266022 
	C337.835114,315.993256 340.193848,315.720520 343.391815,315.350708 
	C341.942139,313.792206 341.224487,313.020660 340.395142,312.129059 
	C343.079590,311.554138 345.362427,311.065216 348.746338,310.340485 
	C346.752594,309.187622 346.040710,308.775970 345.805298,308.639801 
	C347.497345,306.834045 349.067993,305.157837 350.868134,303.236725 
	C345.140533,300.277618 344.154236,302.598419 344.876923,306.604950 
	C341.155151,308.077820 336.020355,306.211578 334.175812,311.632263 
	C331.000732,311.993500 327.825684,312.354736 324.264313,312.295868 
	C324.131653,312.159546 323.999023,312.023193 323.469177,311.274689 
	C321.329163,311.534027 319.189178,311.793365 316.331909,311.741516 
	C314.106354,308.217224 312.028412,310.543640 310.006348,311.975494 
	C310.006348,311.975494 309.944122,311.886627 309.177216,312.017670 
M209.327957,354.714874 
	C211.464890,354.785004 214.605560,355.788513 215.561462,354.760498 
	C219.296188,350.743988 222.365845,352.355652 225.726532,354.848206 
	C225.851578,354.940979 226.275818,354.630341 227.451080,354.124207 
	C225.740829,349.749176 224.076309,345.302826 222.117783,340.989990 
	C222.010284,340.753235 218.802704,341.168365 218.165771,342.073517 
	C216.438354,344.528381 215.318085,347.410492 213.372772,349.725647 
	C213.670197,341.874969 212.132126,339.317444 203.381973,341.755920 
	C203.381973,346.107361 203.381973,350.435669 203.381973,354.764008 
	C203.765839,354.907654 204.149719,355.051300 204.533585,355.194946 
	C205.259811,353.988403 205.986038,352.781891 206.804153,351.422729 
	C207.528534,352.334473 208.199341,353.178833 209.327957,354.714874 
M234.249466,237.623413 
	C236.493759,238.681702 238.738037,239.740005 241.490173,240.949631 
	C241.661362,240.993225 241.832535,241.036835 242.323074,241.700226 
	C244.363983,242.604111 246.404892,243.508011 248.766891,244.554108 
	C248.766891,231.743408 248.766891,219.401657 248.903885,206.118637 
	C248.913986,194.477905 248.791977,182.834808 249.001877,171.197678 
	C249.081253,166.797440 247.548187,164.623474 242.780945,164.232864 
	C240.827805,162.874283 238.874649,161.515686 236.560150,160.007050 
	C236.560150,160.007050 236.169998,159.977722 235.791367,159.294739 
	C231.198868,156.075882 233.078903,160.795547 233.074539,161.827087 
	C232.973495,185.685303 233.016022,209.544205 233.092133,233.402786 
	C233.095963,234.602921 233.641113,235.801315 234.249466,237.623413 
M226.706833,146.293839 
	C225.149277,145.496124 223.591705,144.698395 221.749680,143.289719 
	C220.173264,142.506531 218.596848,141.723328 216.762894,140.372604 
	C216.169800,140.201767 215.576691,140.030945 214.796951,139.365234 
	C214.295807,139.555634 213.794678,139.746033 213.115585,140.708923 
	C213.144608,141.498795 213.173645,142.288681 213.040314,143.986847 
	C213.054703,168.689133 213.257416,193.393936 212.926208,218.091583 
	C212.859131,223.093109 214.492798,226.034271 218.555405,228.223068 
	C219.408020,228.682404 220.126160,229.391388 221.106400,230.487793 
	C221.421173,230.575134 221.735947,230.662476 222.694427,231.098083 
	C224.535812,232.146927 226.377197,233.195755 228.780960,234.564911 
	C228.780960,216.400436 228.780960,199.256180 228.920746,181.160187 
	C228.931122,171.130676 228.976257,161.100937 228.908844,151.071945 
	C228.900192,149.785446 228.306549,148.502853 227.499985,147.041443 
	C227.336136,146.989944 227.172272,146.938461 226.706833,146.293839 
M213.086105,282.771790 
	C213.086014,285.103180 213.240829,287.447113 213.052841,289.763245 
	C212.686981,294.270630 214.586563,296.103943 219.127594,295.955444 
	C225.615524,295.743317 232.115829,295.911285 238.610855,295.914429 
	C243.310501,295.916687 248.010132,295.914886 253.297806,295.914886 
	C252.253265,293.841339 251.540115,292.725922 251.105270,291.510895 
	C249.135147,286.006073 245.537415,283.390167 239.461914,283.951477 
	C235.063553,284.357819 230.597443,284.030762 226.243347,284.030762 
	C225.421890,276.636414 224.727036,276.081573 218.943329,275.937134 
	C214.654266,275.829987 212.745529,277.618256 213.086105,282.771790 
M259.047180,353.590637 
	C263.164276,356.999756 267.100250,356.067047 270.403809,353.410065 
	C273.023682,354.105896 275.242340,354.695190 277.626984,355.328583 
	C277.802155,352.407043 277.928955,350.291962 278.055786,348.176849 
	C278.614471,348.006561 279.173126,347.836273 279.731812,347.665955 
	C280.496643,349.234772 281.121613,350.895447 282.071716,352.342621 
	C282.797943,353.448822 283.935547,354.284973 284.890198,355.241211 
	C285.947968,350.202087 286.053467,346.221313 285.854858,342.255737 
	C285.817230,341.504059 284.573334,340.812775 283.886017,340.093628 
	C283.293182,340.679138 282.495056,341.168610 282.163788,341.876556 
	C281.815674,342.620514 281.914490,343.573608 281.808716,344.518311 
	C279.043365,342.670929 276.661316,341.079651 273.944489,339.264679 
	C272.912506,341.418854 272.228241,342.847137 271.688293,343.974213 
	C270.319489,342.976593 268.897766,341.653687 267.236359,340.794098 
	C264.480011,339.368011 257.568726,341.077454 256.881317,343.910889 
	C256.176270,346.816711 254.146881,350.757080 259.047180,353.590637 
M236.778763,347.091370 
	C237.670456,346.755585 238.562149,346.419800 239.466415,346.079285 
	C240.408295,349.177734 241.292221,352.085571 242.176147,354.993378 
	C242.711914,354.865814 243.247696,354.738220 243.783463,354.610657 
	C243.908234,352.375732 244.032990,350.140808 244.233749,346.544586 
	C246.855637,353.431458 249.347794,348.938660 251.414368,347.721527 
	C252.037766,350.303986 252.598999,352.628967 253.160233,354.953949 
	C253.701706,354.842712 254.243195,354.731476 254.784668,354.620209 
	C254.784668,350.181244 254.784668,345.742249 254.784668,339.961060 
	C251.917892,341.756073 249.790649,343.088043 247.730637,344.377899 
	C246.146805,342.930908 244.236191,341.185364 242.012756,339.154022 
	C241.076859,341.703186 240.534866,343.179443 239.992859,344.655701 
	C239.681549,344.558624 239.370239,344.461548 239.058945,344.364471 
	C239.219070,343.037750 239.379211,341.710999 239.736771,338.748657 
	C236.797699,341.069855 234.891998,342.574951 233.142303,343.956818 
	C231.698090,342.779327 229.880295,341.297241 228.062515,339.815155 
	C227.681305,340.226379 227.300095,340.637604 226.918884,341.048828 
	C227.933731,343.214996 229.134613,345.316956 229.911179,347.565460 
	C230.689590,349.819305 231.044540,352.219391 231.948868,356.127472 
	C233.356537,354.371643 234.440948,353.456879 234.936508,352.291656 
	C235.577164,350.785278 235.747543,349.078918 236.778763,347.091370 
M298.545380,343.115479 
	C295.453949,340.054657 291.878906,339.353210 288.079346,340.556824 
	C288.079346,345.477509 288.079346,350.023987 288.079346,354.481110 
	C298.538025,355.873871 301.935364,352.331757 298.545380,343.115479 
M248.020569,365.526276 
	C246.293991,364.920685 244.567413,364.315125 242.334930,363.532074 
	C242.334930,366.876923 242.334930,369.268036 242.334930,371.627167 
	C248.686584,372.173950 249.026657,371.854584 248.020569,365.526276 
M270.993134,370.609589 
	C271.560211,370.862579 272.186127,371.410339 272.682953,371.311218 
	C273.975128,371.053406 275.210602,370.511597 276.624512,370.030029 
	C276.624512,368.753784 276.624512,366.525146 276.624512,364.267029 
	C274.633179,364.267029 273.034760,364.267029 270.940247,364.267029 
	C270.940247,366.254883 270.940247,368.031586 270.993134,370.609589 
M218.712753,366.448761 
	C216.438843,366.641418 214.164917,366.834076 210.526321,367.142334 
	C211.704788,368.951660 212.455353,371.405579 213.597382,371.603729 
	C216.557159,372.117371 219.545807,371.476837 218.712753,366.448761 
M285.928223,369.070648 
	C285.722046,369.911407 285.515839,370.752136 285.480316,370.896973 
	C287.671692,370.896973 289.620453,370.896973 292.324097,370.896973 
	C291.207550,368.605560 289.997009,366.121277 288.786469,363.637024 
	C288.353882,363.830292 287.921295,364.023590 287.488708,364.216858 
	C287.001068,365.586243 286.513397,366.955627 285.928223,369.070648 
M230.333923,364.190643 
	C229.045837,366.455048 227.757736,368.719452 226.592194,370.768463 
	C229.581619,371.013245 231.554398,371.174774 234.199539,371.391388 
	C233.075073,369.017700 232.023209,366.797272 230.333923,364.190643 
M262.852722,371.043182 
	C262.115112,368.684723 261.377472,366.326294 260.639862,363.967834 
	C260.114990,363.944366 259.590118,363.920898 259.065247,363.897430 
	C258.175903,366.442749 257.286591,368.988068 256.704956,370.652771 
	C259.060333,371.068756 260.782715,371.372955 262.852722,371.043182 
z"/>
<path fill="#EB5C27" opacity="1.000000" stroke="none" 
	d="
M260.034027,299.995544 
	C259.406158,299.280243 258.288239,298.605988 258.224365,297.843414 
	C257.352753,287.441132 250.897491,280.999451 242.704590,275.850891 
	C232.596146,269.498566 222.215714,263.560883 212.307373,256.915405 
	C206.743011,253.183411 201.268890,248.754501 200.008926,241.512665 
	C199.475357,238.445831 199.763031,235.164536 200.130051,232.033752 
	C200.464508,229.180893 201.073090,226.258316 202.175552,223.623688 
	C203.490952,220.480194 205.460648,217.610489 207.945236,214.719238 
	C208.000229,228.211868 218.556412,231.974777 227.254013,237.038254 
	C238.547470,243.612930 250.280350,249.436829 261.522858,256.092682 
	C265.409058,258.393433 268.394104,262.216339 271.570221,265.683289 
	C265.893646,266.428131 263.123566,262.656830 260.338379,258.925812 
	C255.924332,253.012787 254.183914,252.926682 248.580261,258.691498 
	C253.433884,260.000153 253.968643,267.067932 260.077026,266.673553 
	C260.473022,266.648041 261.174774,267.531494 261.321747,268.098969 
	C262.264618,271.738770 263.092163,275.408417 263.610504,279.025879 
	C262.202332,277.629211 261.141235,276.274933 260.031799,274.533478 
	C259.480347,273.591431 258.977264,273.036530 258.474182,272.481628 
	C258.230621,272.684784 257.987061,272.887939 257.743469,273.091095 
	C258.251343,273.946014 258.759216,274.800964 259.488586,275.953003 
	C264.058289,283.399231 261.776550,291.059082 261.282074,298.669434 
	C262.149933,297.930176 262.864288,297.153931 262.923065,296.330872 
	C263.334259,290.572662 263.610016,284.804779 264.258118,279.136353 
	C265.479370,282.580109 266.371552,285.927551 267.453827,289.988037 
	C269.805206,287.592010 273.763489,284.260315 273.440582,283.774597 
	C271.227722,280.445831 274.133911,277.871277 273.962219,275.025940 
	C273.894958,273.911652 273.506226,272.817169 273.268890,271.712616 
	C272.856293,269.792633 272.447571,267.871887 272.037231,265.951447 
	C277.592346,271.962280 278.276917,278.909973 275.189575,286.101471 
	C273.559570,289.898315 270.853760,293.233337 268.291443,296.598755 
	C267.377350,295.898224 266.805450,295.375793 266.233582,294.853394 
	C266.149445,296.232758 266.065338,297.612152 265.993011,299.259094 
	C266.023895,299.704224 266.042999,299.881744 266.062073,300.059235 
	C266.062073,300.059235 265.997314,300.025604 265.827454,300.168274 
	C265.402588,300.519745 265.198273,300.769928 265.044647,301.061493 
	C265.044647,301.061493 265.011353,301.054840 264.662506,301.026428 
	C262.887115,300.663879 261.460571,300.329712 260.034027,299.995544 
M217.210251,246.670441 
	C217.985611,246.718735 218.760986,246.767044 220.402023,246.869263 
	C218.974930,246.051056 218.342743,245.688599 217.285858,244.831543 
	C216.218491,244.188156 215.151138,243.544769 213.675690,242.228653 
	C212.810791,242.000565 211.945892,241.772461 211.080994,241.544357 
	C211.011398,241.782089 210.941803,242.019806 210.872208,242.257538 
	C211.679550,242.724838 212.486893,243.192154 213.723160,244.152771 
	C214.789612,244.799103 215.856064,245.445419 217.210251,246.670441 
M230.587555,243.561264 
	C230.225647,243.888138 229.759354,244.152954 229.521332,244.553467 
	C228.794846,245.775803 228.076019,247.020233 227.579910,248.340836 
	C227.514252,248.515640 229.199921,249.663391 229.326172,249.547211 
	C230.826660,248.166641 232.185074,246.631653 233.580750,245.137177 
	C232.723846,244.421524 231.866959,243.705887 230.930084,242.282852 
	C228.956543,241.019104 227.051208,239.623901 224.979721,238.548920 
	C223.992798,238.036758 222.495773,238.456467 221.564896,237.896774 
	C218.267456,235.914108 215.243896,233.441559 211.844498,231.679459 
	C210.443909,230.953476 208.352997,231.559189 207.189774,231.559189 
	C209.638016,234.630890 211.692490,237.589066 214.189606,240.108521 
	C214.934143,240.859726 216.919052,240.381561 218.644135,240.485199 
	C218.842560,241.021652 219.228622,242.065384 219.301178,242.261520 
	C223.551819,242.533417 227.268677,242.771164 230.587555,243.561264 
M240.074188,248.459045 
	C239.429474,247.243362 238.784775,246.027695 237.567139,243.731659 
	C237.428299,245.687790 237.460449,246.458878 237.307648,247.191391 
	C236.207840,252.463852 239.584564,255.371078 243.426544,257.312897 
	C247.791199,259.518951 246.301712,253.490936 248.835754,252.680679 
	C249.227188,252.555527 249.368378,251.647675 250.138550,250.011276 
	C246.586487,249.523514 243.651245,249.120468 240.074188,248.459045 
M206.704819,221.421402 
	C206.581680,221.309891 206.474792,221.162369 206.330688,221.097321 
	C206.195450,221.036240 205.908859,221.003128 205.879593,221.058517 
	C203.958435,224.693680 206.561737,226.499084 208.420532,228.606979 
	C208.845139,228.438538 209.269760,228.270081 209.694382,228.101639 
	C208.781876,226.067200 207.869354,224.032745 206.704819,221.421402 
M235.122696,255.008545 
	C234.492584,254.848618 233.862473,254.688705 233.232361,254.528778 
	C233.122498,254.831635 233.012619,255.134476 232.902756,255.437332 
	C235.131638,256.505615 237.360504,257.573914 239.952118,258.816040 
	C239.780914,257.903687 239.821243,257.464752 239.661896,257.373169 
	C238.424652,256.662018 237.148926,256.017853 235.122696,255.008545 
M255.726196,271.138031 
	C256.018738,271.234589 256.307343,271.353668 256.607574,271.406281 
	C256.659576,271.415375 256.864746,271.068756 256.823975,271.011658 
	C256.085968,269.979126 255.321091,268.965820 254.561951,267.948395 
	C254.208099,268.215302 253.854248,268.482208 253.500397,268.749115 
	C254.011780,269.367706 254.523178,269.986328 255.726196,271.138031 
M244.468185,261.601501 
	C243.230789,260.477020 241.993408,259.352539 240.756012,258.228058 
	C240.492432,258.612274 240.228851,258.996490 239.965271,259.380707 
	C241.208084,259.988708 242.450882,260.596680 244.468185,261.601501 
M228.571487,252.465897 
	C229.924042,253.210327 231.276581,253.954758 232.629135,254.699188 
	C232.813721,254.279892 232.998291,253.860611 233.182861,253.441315 
	C231.841812,252.978638 230.500748,252.515961 228.571487,252.465897 
M223.912491,246.525208 
	C223.861740,246.160095 223.810974,245.794983 223.760223,245.429871 
	C223.478973,245.507355 223.197708,245.584824 222.916458,245.662292 
	C223.110458,245.984909 223.304459,246.307510 223.912491,246.525208 
M245.755859,262.899811 
	C246.374710,263.078217 246.993546,263.256653 247.612381,263.435089 
	C247.674454,263.034882 247.736526,262.634705 247.798584,262.234497 
	C246.916351,262.234497 246.034134,262.234497 245.755859,262.899811 
M249.666473,265.254425 
	C250.039352,265.045502 250.412231,264.836578 250.785110,264.627625 
	C250.084442,264.269073 249.383789,263.910522 248.683121,263.551971 
	C248.728165,264.018646 248.773209,264.485352 249.666473,265.254425 
M204.136124,234.798203 
	C204.457932,235.139236 204.779739,235.480286 205.101547,235.821320 
	C204.990921,235.361099 204.880295,234.900894 204.136124,234.798203 
z"/>
<path fill="#F6AF0D" opacity="1.000000" stroke="none" 
	d="
M312.159210,218.887329 
	C308.193726,212.133881 304.537689,205.168762 300.127014,198.719803 
	C298.044037,195.674225 294.514801,193.617844 291.387726,190.646561 
	C290.530914,188.652374 290.358795,186.579102 289.244202,185.697723 
	C285.614990,182.827896 285.320679,179.218155 285.993439,175.174164 
	C300.659058,179.035080 309.312042,189.895126 316.972168,201.870132 
	C318.703552,204.576813 320.178253,207.447723 321.909515,210.954865 
	C322.640686,213.499115 323.233429,215.331512 323.826172,217.163910 
	C323.826172,217.163910 323.958344,217.457626 323.964050,218.076111 
	C324.123718,220.661392 324.414459,222.628799 324.405609,224.594879 
	C324.380859,230.090607 324.232208,235.585770 323.803772,240.947983 
	C323.037842,240.347076 322.533325,239.925644 322.174255,239.404129 
	C319.791809,235.943741 317.440521,232.461899 314.787384,228.991989 
	C314.301971,229.015167 314.108307,229.033386 313.914642,229.051620 
	C313.914642,229.051620 313.974335,229.005508 313.995544,228.600601 
	C313.397583,225.092911 312.778381,221.990112 312.159210,218.887329 
z"/>
<path fill="#DC5725" opacity="1.000000" stroke="none" 
	d="
M213.087341,282.317108 
	C212.745529,277.618256 214.654266,275.829987 218.943329,275.937134 
	C224.727036,276.081573 225.421890,276.636414 226.243347,284.030762 
	C230.597443,284.030762 235.063553,284.357819 239.461914,283.951477 
	C245.537415,283.390167 249.135147,286.006073 251.105270,291.510895 
	C251.540115,292.725922 252.253265,293.841339 253.297806,295.914886 
	C248.010132,295.914886 243.310501,295.916687 238.610855,295.914429 
	C232.115829,295.911285 225.615524,295.743317 219.127594,295.955444 
	C214.586563,296.103943 212.686981,294.270630 213.052841,289.763245 
	C213.240829,287.447113 213.086014,285.103180 213.087341,282.317108 
z"/>
<path fill="#ED7516" opacity="1.000000" stroke="none" 
	d="
M265.934540,254.982697 
	C263.839355,253.676010 261.744141,252.369324 259.343750,250.506195 
	C258.302643,241.459671 257.733215,232.950027 256.739746,224.490204 
	C256.396698,221.569199 254.998520,218.772079 254.066681,215.458252 
	C254.045639,204.521347 253.938828,194.042725 254.128876,183.569504 
	C254.162811,181.698959 255.426193,179.850708 256.121887,177.992172 
	C256.698914,178.448975 257.275940,178.905777 257.936981,180.067871 
	C259.724335,197.915039 261.251404,215.077133 263.213684,232.189316 
	C264.054169,239.518784 265.800232,246.744415 266.965759,254.214783 
	C266.509308,254.602463 266.221924,254.792572 265.934540,254.982697 
z"/>
<path fill="#EC8B14" opacity="1.000000" stroke="none" 
	d="
M217.020432,140.940140 
	C218.596848,141.723328 220.173264,142.506531 221.552032,143.778442 
	C221.011719,146.940933 220.183853,149.655655 220.405380,152.281815 
	C221.810333,168.936188 223.424942,185.573135 225.025543,202.210526 
	C225.369568,205.786423 225.939529,209.340607 226.405411,212.904800 
	C226.935806,212.853180 227.466217,212.801575 227.996613,212.749954 
	C227.996613,208.981018 227.906448,205.209442 228.016678,201.443741 
	C228.205383,194.997864 228.519516,188.555679 228.780960,182.111938 
	C228.780960,199.256180 228.780960,216.400436 228.780960,234.564911 
	C226.377197,233.195755 224.535812,232.146927 222.629669,230.689392 
	C222.859100,228.762589 223.521881,227.211411 223.388977,225.731659 
	C222.350586,214.169266 221.025818,202.631882 220.049606,191.064804 
	C218.867218,177.054977 217.903076,163.026154 216.933945,148.999359 
	C216.749359,146.327698 216.980881,143.627289 217.020432,140.940140 
z"/>
<path fill="#EE9115" opacity="1.000000" stroke="none" 
	d="
M236.921509,160.157104 
	C238.874649,161.515686 240.827805,162.874283 242.714264,164.809143 
	C242.322144,166.110413 241.651962,166.870804 241.722198,167.555191 
	C243.100784,180.988663 244.560165,194.413895 246.022659,207.838638 
	C246.138138,208.898636 246.397614,209.942917 246.811172,212.201523 
	C247.762314,209.700943 248.264603,208.380417 248.766876,207.059891 
	C248.766891,219.401657 248.766891,231.743408 248.766891,244.554108 
	C246.404892,243.508011 244.363983,242.604111 242.546692,241.322083 
	C246.596390,239.102280 244.914581,235.746368 244.657516,233.056702 
	C243.983795,226.007477 242.803009,219.008240 242.033585,211.966232 
	C241.027145,202.755249 240.231308,193.521362 239.327133,184.299072 
	C238.538025,176.250504 237.724335,168.204330 236.921509,160.157104 
z"/>
<path fill="#ED7516" opacity="1.000000" stroke="none" 
	d="
M236.740829,160.082077 
	C237.724335,168.204330 238.538025,176.250504 239.327133,184.299072 
	C240.231308,193.521362 241.027145,202.755249 242.033585,211.966232 
	C242.803009,219.008240 243.983795,226.007477 244.657516,233.056702 
	C244.914581,235.746368 246.596390,239.102280 242.387024,241.012192 
	C241.832535,241.036835 241.661362,240.993225 241.212524,240.478821 
	C239.958313,231.065231 238.948929,222.125854 238.015488,213.178574 
	C237.251526,205.855972 236.624756,198.518661 235.797256,191.203690 
	C235.707626,190.411438 234.688354,189.724350 234.080627,188.521347 
	C234.049545,180.345337 233.914429,172.633118 234.124420,164.930298 
	C234.169907,163.262085 235.455566,161.627686 236.169998,159.977722 
	C236.169998,159.977722 236.560150,160.007050 236.740829,160.082077 
z"/>
<path fill="#F0A013" opacity="1.000000" stroke="none" 
	d="
M285.654785,175.000015 
	C285.320679,179.218155 285.614990,182.827896 289.244202,185.697723 
	C290.358795,186.579102 290.530914,188.652374 291.070648,190.498611 
	C285.397583,188.424484 279.628143,186.343445 274.218964,183.561798 
	C267.034973,179.867508 260.132050,175.626678 253.275101,171.001114 
	C264.296021,169.846634 275.227692,168.613785 285.654785,175.000015 
z"/>
<path fill="#ED7516" opacity="1.000000" stroke="none" 
	d="
M216.891663,140.656372 
	C216.980881,143.627289 216.749359,146.327698 216.933945,148.999359 
	C217.903076,163.026154 218.867218,177.054977 220.049606,191.064804 
	C221.025818,202.631882 222.350586,214.169266 223.388977,225.731659 
	C223.521881,227.211411 222.859100,228.762589 222.307831,230.515259 
	C221.735947,230.662476 221.421173,230.575134 221.032471,229.807251 
	C220.101471,221.953415 219.318237,214.770355 218.367477,207.609512 
	C217.328720,199.785873 215.640869,192.015335 215.124130,184.163193 
	C214.341782,172.275299 214.353622,160.335983 213.958771,148.420807 
	C213.899551,146.633667 213.464096,144.858994 213.202667,143.078552 
	C213.173645,142.288681 213.144608,141.498795 213.487366,140.341614 
	C214.233978,139.936249 214.608780,139.898193 214.983597,139.860138 
	C215.576691,140.030945 216.169800,140.201767 216.891663,140.656372 
z"/>
<path fill="#D45B29" opacity="1.000000" stroke="none" 
	d="
M258.761444,353.351105 
	C254.146881,350.757080 256.176270,346.816711 256.881317,343.910889 
	C257.568726,341.077454 264.480011,339.368011 267.236359,340.794098 
	C268.897766,341.653687 270.319489,342.976593 271.688293,343.974213 
	C272.228241,342.847137 272.912506,341.418854 273.944489,339.264679 
	C276.661316,341.079651 279.043365,342.670929 281.808716,344.518311 
	C281.914490,343.573608 281.815674,342.620514 282.163788,341.876556 
	C282.495056,341.168610 283.293182,340.679138 283.886017,340.093628 
	C284.573334,340.812775 285.817230,341.504059 285.854858,342.255737 
	C286.053467,346.221313 285.947968,350.202087 284.890198,355.241211 
	C283.935547,354.284973 282.797943,353.448822 282.071716,352.342621 
	C281.121613,350.895447 280.496643,349.234772 279.731812,347.665955 
	C279.173126,347.836273 278.614471,348.006561 278.055786,348.176849 
	C277.928955,350.291962 277.802155,352.407043 277.626984,355.328583 
	C275.242340,354.695190 273.023682,354.105896 270.403809,353.410065 
	C267.100250,356.067047 263.164276,356.999756 258.761444,353.351105 
M265.007843,351.448212 
	C266.283630,349.801025 267.559418,348.153839 269.025604,346.260834 
	C264.815399,344.079956 261.825348,343.150635 260.433929,347.297119 
	C259.378082,350.443542 261.323700,351.794006 265.007843,351.448212 
z"/>
<path fill="#F0A013" opacity="1.000000" stroke="none" 
	d="
M315.079132,228.987030 
	C317.440521,232.461899 319.791809,235.943741 322.174255,239.404129 
	C322.533325,239.925644 323.037842,240.347076 323.780365,241.366028 
	C323.715332,245.346939 323.345001,248.776627 322.974640,252.206299 
	C322.974640,252.206299 322.965668,252.562607 322.712524,252.984009 
	C322.296204,254.006088 322.133026,254.606796 321.969849,255.207504 
	C321.969849,255.207504 321.957550,255.517303 321.708374,255.861176 
	C321.300293,256.530090 321.141449,256.855133 320.982605,257.180176 
	C320.215179,259.375916 319.447815,261.571655 318.085815,263.728149 
	C315.025513,260.392181 309.431305,259.508545 309.949036,253.910660 
	C310.381744,252.045959 310.814453,250.181274 311.845581,247.878815 
	C312.965057,244.224365 313.486084,241.007721 314.007080,237.791061 
	C314.007080,237.791061 314.027405,237.423843 314.316650,236.975922 
	C314.763611,234.014328 314.921356,231.500687 315.079132,228.987030 
M313.409149,254.246918 
	C313.519409,254.835617 313.629669,255.424316 313.739960,256.013000 
	C314.025452,255.909851 314.310944,255.806717 314.596436,255.703568 
	C314.320679,255.111557 314.044952,254.519547 313.409149,254.246918 
z"/>
<path fill="#DC5725" opacity="1.000000" stroke="none" 
	d="
M213.121490,143.532700 
	C213.464096,144.858994 213.899551,146.633667 213.958771,148.420807 
	C214.353622,160.335983 214.341782,172.275299 215.124130,184.163193 
	C215.640869,192.015335 217.328720,199.785873 218.367477,207.609512 
	C219.318237,214.770355 220.101471,221.953415 220.932404,229.556015 
	C220.126160,229.391388 219.408020,228.682404 218.555405,228.223068 
	C214.492798,226.034271 212.859131,223.093109 212.926208,218.091583 
	C213.257416,193.393936 213.054703,168.689133 213.121490,143.532700 
z"/>
<path fill="#F0A013" opacity="1.000000" stroke="none" 
	d="
M228.850861,181.636063 
	C228.519516,188.555679 228.205383,194.997864 228.016678,201.443741 
	C227.906448,205.209442 227.996613,208.981018 227.996613,212.749954 
	C227.466217,212.801575 226.935806,212.853180 226.405411,212.904800 
	C225.939529,209.340607 225.369568,205.786423 225.025543,202.210526 
	C223.424942,185.573135 221.810333,168.936188 220.405380,152.281815 
	C220.183853,149.655655 221.011719,146.940933 221.694260,144.083923 
	C223.591705,144.698395 225.149277,145.496124 226.505966,146.697754 
	C225.321320,148.543961 223.457443,150.017746 223.507721,151.423035 
	C223.713898,157.184067 224.443771,162.931137 225.109100,168.668472 
	C225.356522,170.802063 225.955414,172.894882 226.394043,175.006287 
	C226.923996,174.933289 227.453949,174.860291 227.983902,174.787292 
	C227.983902,165.597672 227.983902,156.408066 227.983902,147.218460 
	C228.306549,148.502853 228.900192,149.785446 228.908844,151.071945 
	C228.976257,161.100937 228.931122,171.130676 228.850861,181.636063 
z"/>
<path fill="#D45B29" opacity="1.000000" stroke="none" 
	d="
M236.449585,347.275024 
	C235.747543,349.078918 235.577164,350.785278 234.936508,352.291656 
	C234.440948,353.456879 233.356537,354.371643 231.948868,356.127472 
	C231.044540,352.219391 230.689590,349.819305 229.911179,347.565460 
	C229.134613,345.316956 227.933731,343.214996 226.918884,341.048828 
	C227.300095,340.637604 227.681305,340.226379 228.062515,339.815155 
	C229.880295,341.297241 231.698090,342.779327 233.142303,343.956818 
	C234.891998,342.574951 236.797699,341.069855 239.736771,338.748657 
	C239.379211,341.710999 239.219070,343.037750 239.058945,344.364471 
	C239.370239,344.461548 239.681549,344.558624 239.992859,344.655701 
	C240.534866,343.179443 241.076859,341.703186 242.012756,339.154022 
	C244.236191,341.185364 246.146805,342.930908 247.730637,344.377899 
	C249.790649,343.088043 251.917892,341.756073 254.784668,339.961060 
	C254.784668,345.742249 254.784668,350.181244 254.784668,354.620209 
	C254.243195,354.731476 253.701706,354.842712 253.160233,354.953949 
	C252.598999,352.628967 252.037766,350.303986 251.414368,347.721527 
	C249.347794,348.938660 246.855637,353.431458 244.233749,346.544586 
	C244.032990,350.140808 243.908234,352.375732 243.783463,354.610657 
	C243.247696,354.738220 242.711914,354.865814 242.176147,354.993378 
	C241.292221,352.085571 240.408295,349.177734 239.466415,346.079285 
	C238.562149,346.419800 237.670456,346.755585 236.449585,347.275024 
z"/>
<path fill="#BF5126" opacity="1.000000" stroke="none" 
	d="
M207.206863,319.036102 
	C205.773376,318.577515 204.339905,318.118896 202.685699,317.589661 
	C203.054703,323.038818 200.600479,325.093231 195.237228,324.438019 
	C196.281189,322.576874 197.314331,320.734985 198.347488,318.893097 
	C197.826462,318.346344 197.305420,317.799591 196.784393,317.252869 
	C194.325592,318.793091 191.866776,320.333344 189.492783,321.820465 
	C189.106369,320.858124 188.558868,319.494629 188.011383,318.131134 
	C187.043777,319.197418 186.239716,320.520935 185.067841,321.265869 
	C183.547379,322.232361 181.734146,322.738281 180.448898,323.274658 
	C180.134674,321.089966 179.911880,319.541107 179.346222,317.676392 
	C179.003357,317.360504 179.050934,316.897614 179.412506,316.919312 
	C183.090302,313.836823 178.235977,313.736572 177.974152,311.947693 
	C178.005737,311.935974 178.028763,311.999268 178.028763,311.999268 
	C179.060150,311.677948 180.114182,311.033356 181.118134,311.103699 
	C183.109253,311.243164 184.589325,311.694885 186.908127,310.486511 
	C190.049393,308.849518 192.721512,311.687927 194.040222,315.092987 
	C194.332535,315.847778 195.454376,316.281342 196.194260,316.862793 
	C196.131485,315.926910 196.328979,314.866119 195.952194,314.080933 
	C195.148117,312.405365 194.046387,310.872650 193.084793,309.310974 
	C199.054688,308.749573 200.725388,309.864288 203.152573,315.745239 
	C203.411118,316.371704 204.601440,316.613586 206.066483,317.006653 
	C207.468307,317.625458 208.163132,318.271545 208.583633,318.941040 
	C207.941833,318.988312 207.574341,319.012207 207.206863,319.036102 
M186.394104,316.663483 
	C186.589050,315.305756 186.783981,313.948029 186.978928,312.590302 
	C186.604828,312.612732 186.230728,312.635193 185.856628,312.657654 
	C185.925705,313.766998 185.994781,314.876343 186.394104,316.663483 
z"/>
<path fill="#F6AF0D" opacity="1.000000" stroke="none" 
	d="
M248.835388,206.589264 
	C248.264603,208.380417 247.762314,209.700943 246.811172,212.201523 
	C246.397614,209.942917 246.138138,208.898636 246.022659,207.838638 
	C244.560165,194.413895 243.100784,180.988663 241.722198,167.555191 
	C241.651962,166.870804 242.322144,166.110413 242.850372,165.129211 
	C247.548187,164.623474 249.081253,166.797440 249.001877,171.197678 
	C248.791977,182.834808 248.913986,194.477905 248.835388,206.589264 
z"/>
<path fill="#EE9115" opacity="1.000000" stroke="none" 
	d="
M309.632324,254.071518 
	C309.431305,259.508545 315.025513,260.392181 317.767303,263.889893 
	C314.941772,267.983398 311.840118,271.875854 308.041626,275.825745 
	C305.170654,275.396179 302.996552,274.909210 301.414520,274.554840 
	C300.424866,272.353699 299.662262,270.657532 298.899658,268.961395 
	C302.371643,264.051727 305.843597,259.142059 309.632324,254.071518 
z"/>
<path fill="#E55D1C" opacity="1.000000" stroke="none" 
	d="
M234.100296,188.988495 
	C234.688354,189.724350 235.707626,190.411438 235.797256,191.203690 
	C236.624756,198.518661 237.251526,205.855972 238.015488,213.178574 
	C238.948929,222.125854 239.958313,231.065231 240.958588,240.403168 
	C238.738037,239.740005 236.493759,238.681702 234.109680,236.845642 
	C234.013351,220.374756 234.056824,204.681625 234.100296,188.988495 
z"/>
<path fill="#EC8B14" opacity="1.000000" stroke="none" 
	d="
M298.605957,269.078491 
	C299.662262,270.657532 300.424866,272.353699 301.414520,274.554840 
	C302.996552,274.909210 305.170654,275.396179 307.731079,275.964233 
	C304.692444,279.357605 301.267517,282.669922 297.125549,286.006409 
	C296.078430,286.041718 295.686554,285.939606 295.427551,286.080963 
	C291.700531,288.115173 289.626190,285.823395 287.854340,283.096588 
	C285.766418,279.883423 288.960815,279.434998 290.533844,278.012695 
	C291.300171,277.319824 291.493347,275.993103 291.945984,274.953308 
	C291.945984,274.953308 291.997009,274.977386 292.178101,274.843811 
	C292.617126,274.506104 292.817444,274.255859 292.960144,273.959473 
	C292.960144,273.959473 293.000000,274.000000 293.183258,273.852722 
	C293.620697,273.500702 293.817352,273.250671 293.956482,272.955414 
	C293.956482,272.955414 293.996674,272.988831 294.184509,272.874847 
	C294.634399,272.599609 294.862701,272.399780 295.057281,272.161377 
	C296.142273,271.172791 297.227264,270.184204 298.605957,269.078491 
z"/>
<path fill="#EE9115" opacity="1.000000" stroke="none" 
	d="
M267.134857,254.017227 
	C265.800232,246.744415 264.054169,239.518784 263.213684,232.189316 
	C261.251404,215.077133 259.724335,197.915039 258.026337,180.334335 
	C258.462585,179.950684 258.893463,180.005859 259.823303,180.298203 
	C260.586700,180.728714 260.871765,180.884430 261.177399,181.002502 
	C261.177399,181.002502 261.523468,181.019531 261.867157,181.262985 
	C262.503662,181.668228 262.796478,181.830002 263.089294,181.991776 
	C263.089294,181.991776 263.023010,181.978714 262.992859,182.208435 
	C262.944794,182.613602 262.926880,182.789017 262.560394,183.014801 
	C261.724854,184.374359 260.712738,185.733429 260.831543,186.985153 
	C262.144867,200.820663 263.512207,214.653915 265.148132,228.454193 
	C265.648895,232.678726 267.017120,236.800430 267.997406,241.431244 
	C267.716095,245.934570 267.425476,249.975906 267.134857,254.017227 
z"/>
<path fill="#D45B29" opacity="1.000000" stroke="none" 
	d="
M324.650604,312.715973 
	C327.825684,312.354736 331.000732,311.993500 334.511139,312.082886 
	C334.930573,314.001129 335.014679,315.468781 335.098785,316.936401 
	C335.954865,317.403351 336.810944,317.870300 337.666992,318.337250 
	C337.439117,318.955536 337.211243,319.573822 336.983398,320.192108 
	C334.417297,319.418701 331.851196,318.645264 329.223358,317.853241 
	C329.371490,318.447083 329.744141,319.940826 330.144470,321.545685 
	C326.552917,323.568359 324.403839,322.663696 322.483459,316.672424 
	C322.483459,319.590393 322.483459,321.059296 322.483459,322.894684 
	C319.806946,322.207520 315.584656,324.592651 315.925690,318.187622 
	C315.926392,317.321594 315.932251,317.107605 315.977722,316.526947 
	C316.368927,314.779266 316.720551,313.398193 317.041809,312.011108 
	C317.011444,312.005066 317.049164,312.052704 317.049164,312.052704 
	C319.189178,311.793365 321.329163,311.534027 323.374023,311.754578 
	C322.827301,313.541656 322.375763,314.848846 321.924225,316.156006 
	C322.165863,316.242432 322.407471,316.328827 322.649109,316.415253 
	C323.316284,315.182159 323.983459,313.949066 324.650604,312.715973 
z"/>
<path fill="#E27A26" opacity="1.000000" stroke="none" 
	d="
M291.584808,274.985016 
	C291.493347,275.993103 291.300171,277.319824 290.533844,278.012695 
	C288.960815,279.434998 285.766418,279.883423 287.854340,283.096588 
	C289.626190,285.823395 291.700531,288.115173 295.427551,286.080963 
	C295.686554,285.939606 296.078430,286.041718 296.773865,286.031982 
	C290.485565,289.297119 283.831909,292.560913 277.178284,295.824707 
	C278.771362,286.059723 281.461060,277.898621 291.584808,274.985016 
z"/>
<path fill="#D45B29" opacity="1.000000" stroke="none" 
	d="
M298.734589,343.467163 
	C301.935364,352.331757 298.538025,355.873871 288.079346,354.481110 
	C288.079346,350.023987 288.079346,345.477509 288.079346,340.556824 
	C291.878906,339.353210 295.453949,340.054657 298.734589,343.467163 
z"/>
<path fill="#BF5126" opacity="1.000000" stroke="none" 
	d="
M156.975082,307.026154 
	C157.968674,306.284424 158.962280,305.542725 160.382828,304.482269 
	C160.806046,306.990845 161.185928,309.242584 161.565811,311.494354 
	C161.845032,311.508911 162.124252,311.523499 162.403473,311.538055 
	C162.754761,310.268311 163.106049,308.998596 163.457321,307.728851 
	C163.796021,307.633240 164.134705,307.537659 164.473389,307.442078 
	C165.231049,309.918976 165.988708,312.395874 166.746384,314.872772 
	C167.073059,314.768707 167.399734,314.664612 167.726410,314.560547 
	C167.726410,313.094971 167.726410,311.629425 167.726410,310.325195 
	C170.255325,310.707977 172.488510,311.045990 174.592957,311.811676 
	C174.320526,313.989258 174.176819,315.739227 173.956085,318.427399 
	C173.703751,318.866608 172.866455,320.324036 172.029144,321.781464 
	C170.166138,321.175507 168.271286,320.649658 166.454544,319.927338 
	C165.633423,319.600891 164.967697,318.883545 164.231476,318.343536 
	C164.913513,317.702148 165.595535,317.060760 166.515762,316.195374 
	C164.149353,315.790131 161.696793,315.870667 159.769302,314.904144 
	C157.697845,313.865387 156.119324,311.843658 154.456650,310.367096 
	C155.358063,309.067596 155.939911,308.228790 156.770111,307.182953 
	C157.018448,306.975922 156.975082,307.026154 156.975082,307.026154 
z"/>
<path fill="#D45B29" opacity="1.000000" stroke="none" 
	d="
M213.957092,350.123199 
	C215.318085,347.410492 216.438354,344.528381 218.165771,342.073517 
	C218.802704,341.168365 222.010284,340.753235 222.117783,340.989990 
	C224.076309,345.302826 225.740829,349.749176 227.451080,354.124207 
	C226.275818,354.630341 225.851578,354.940979 225.726532,354.848206 
	C222.365845,352.355652 219.296188,350.743988 215.561462,354.760498 
	C214.605560,355.788513 211.464890,354.785004 209.413696,354.266357 
	C210.985321,352.586273 212.471191,351.354736 213.957092,350.123199 
z"/>
<path fill="#DC5725" opacity="1.000000" stroke="none" 
	d="
M213.664917,349.924438 
	C212.471191,351.354736 210.985321,352.586273 209.184814,353.920471 
	C208.199341,353.178833 207.528534,352.334473 206.804153,351.422729 
	C205.986038,352.781891 205.259811,353.988403 204.533585,355.194946 
	C204.149719,355.051300 203.765839,354.907654 203.381973,354.764008 
	C203.381973,350.435669 203.381973,346.107361 203.381973,341.755920 
	C212.132126,339.317444 213.670197,341.874969 213.664917,349.924438 
z"/>
<path fill="#E55D1C" opacity="1.000000" stroke="none" 
	d="
M254.082321,215.918381 
	C254.998520,218.772079 256.396698,221.569199 256.739746,224.490204 
	C257.733215,232.950027 258.302643,241.459671 259.032043,250.352448 
	C257.573212,249.873001 256.120819,248.990860 254.355103,247.475540 
	C254.055298,236.534378 254.068817,226.226379 254.082321,215.918381 
z"/>
<path fill="#DC5725" opacity="1.000000" stroke="none" 
	d="
M266.950775,317.889587 
	C266.972076,317.484253 266.993378,317.078888 267.203583,316.046021 
	C267.577118,313.584747 267.761810,311.751007 267.946472,309.917267 
	C268.125183,309.645142 268.303894,309.373016 269.097412,309.037903 
	C272.404785,308.976166 275.887543,307.901978 274.959717,312.830566 
	C271.682159,317.380768 273.168152,321.824890 275.443176,326.216492 
	C269.682617,327.436462 266.720673,324.712219 267.346558,318.810059 
	C267.047333,318.366486 266.950775,317.889587 266.950775,317.889587 
z"/>
<path fill="#D45B29" opacity="1.000000" stroke="none" 
	d="
M297.981415,322.819580 
	C295.958710,325.826355 293.580048,324.095551 291.713440,322.897583 
	C290.696136,322.244690 290.226501,320.393585 289.954559,318.996368 
	C289.402283,316.158813 287.093933,312.840881 290.899017,310.698395 
	C293.441254,309.266998 296.358307,308.501343 299.107635,307.437744 
	C299.339966,307.816315 299.572327,308.194885 299.804657,308.573486 
	C299.204132,309.794952 298.603577,311.016418 297.999573,312.571899 
	C297.996094,312.905853 298.051239,312.942291 297.733704,313.069336 
	C296.954803,314.447998 296.493439,315.699585 295.743835,317.005493 
	C294.737549,317.357788 294.019592,317.655823 293.529053,317.859436 
	C295.079712,319.586945 296.530548,321.203247 297.981415,322.819580 
z"/>
<path fill="#BF5126" opacity="1.000000" stroke="none" 
	d="
M335.287598,316.601196 
	C335.014679,315.468781 334.930573,314.001129 334.887390,312.206879 
	C336.020355,306.211578 341.155151,308.077820 344.876923,306.604950 
	C344.154236,302.598419 345.140533,300.277618 350.868134,303.236725 
	C349.067993,305.157837 347.497345,306.834045 345.805298,308.639801 
	C346.040710,308.775970 346.752594,309.187622 348.746338,310.340485 
	C345.362427,311.065216 343.079590,311.554138 340.395142,312.129059 
	C341.224487,313.020660 341.942139,313.792206 343.391815,315.350708 
	C340.193848,315.720520 337.835114,315.993256 335.287598,316.601196 
z"/>
<path fill="#F6AF0D" opacity="1.000000" stroke="none" 
	d="
M227.741943,147.129944 
	C227.983902,156.408066 227.983902,165.597672 227.983902,174.787292 
	C227.453949,174.860291 226.923996,174.933289 226.394043,175.006287 
	C225.955414,172.894882 225.356522,170.802063 225.109100,168.668472 
	C224.443771,162.931137 223.713898,157.184067 223.507721,151.423035 
	C223.457443,150.017746 225.321320,148.543961 226.656738,146.994324 
	C227.172272,146.938461 227.336136,146.989944 227.741943,147.129944 
z"/>
<path fill="#E27A26" opacity="1.000000" stroke="none" 
	d="
M234.080627,188.521347 
	C234.056824,204.681625 234.013351,220.374756 233.952042,236.534210 
	C233.641113,235.801315 233.095963,234.602921 233.092133,233.402786 
	C233.016022,209.544205 232.973495,185.685303 233.074539,161.827087 
	C233.078903,160.795547 231.198868,156.075882 235.980682,159.636230 
	C235.455566,161.627686 234.169907,163.262085 234.124420,164.930298 
	C233.914429,172.633118 234.049545,180.345337 234.080627,188.521347 
z"/>
<path fill="#E0A636" opacity="1.000000" stroke="none" 
	d="
M266.965759,254.214783 
	C267.425476,249.975906 267.716095,245.934570 268.006348,240.966232 
	C267.997955,231.689957 267.989868,223.340683 267.990906,214.523773 
	C268.014191,206.403641 268.200562,198.745239 267.938110,191.102264 
	C267.858887,188.794083 266.534760,186.528641 265.858704,184.156982 
	C265.936523,184.070358 266.092041,183.897003 266.092041,183.897003 
	C267.069183,185.115494 268.891357,186.329193 268.898285,187.553162 
	C269.027954,210.467957 268.943542,233.383987 268.884827,256.299713 
	C268.884125,256.578613 268.632507,256.856903 268.342560,257.457397 
	C267.570496,256.789673 266.880768,256.193176 266.062775,255.289673 
	C266.221924,254.792572 266.509308,254.602463 266.965759,254.214783 
z"/>
<path fill="#E27A26" opacity="1.000000" stroke="none" 
	d="
M254.066681,215.458252 
	C254.068817,226.226379 254.055298,236.534378 254.076614,247.293900 
	C253.749557,246.953339 253.073486,246.162033 253.071518,245.369064 
	C253.014862,222.602570 253.025787,199.835907 253.025787,176.629089 
	C254.076340,176.915451 254.921768,177.145889 255.944534,177.684265 
	C255.426193,179.850708 254.162811,181.698959 254.128876,183.569504 
	C253.938828,194.042725 254.045639,204.521347 254.066681,215.458252 
z"/>
<path fill="#EB5C27" opacity="1.000000" stroke="none" 
	d="
M235.031403,316.060547 
	C235.031403,316.060547 234.926331,316.509949 234.455231,316.750671 
	C232.319992,316.990662 230.655853,316.989929 228.991699,316.989227 
	C228.011124,314.918427 227.030563,312.847595 226.083588,310.161011 
	C228.433258,309.335327 230.749329,309.125458 233.065414,308.915588 
	C233.065414,308.915558 233.033417,308.999420 233.179382,309.169067 
	C233.593857,309.538544 233.862366,309.738403 234.130859,309.938263 
	C234.450821,310.011383 234.703140,310.183624 234.958084,311.102234 
	C235.029358,313.186493 235.030380,314.623535 235.031403,316.060547 
z"/>
<path fill="#EB5C27" opacity="1.000000" stroke="none" 
	d="
M222.793503,312.010315 
	C222.849228,312.437653 222.904968,312.864960 222.801392,313.790558 
	C222.445862,314.570007 222.249619,314.851196 222.053375,315.132355 
	C222.052536,318.885620 220.126724,318.579773 217.276917,316.707977 
	C215.908020,315.477386 214.954147,314.739471 214.000290,314.001587 
	C214.026093,312.912842 214.051910,311.824097 214.052032,310.005188 
	C214.034760,308.623444 214.043167,307.971863 214.051575,307.320282 
	C214.486450,307.267212 214.921310,307.214142 215.824463,307.373260 
	C216.506058,307.775055 216.750702,307.906250 217.026672,307.979004 
	C217.026672,307.979004 217.000000,308.000000 217.057114,308.285400 
	C218.414780,309.043152 219.715347,309.515533 221.015900,309.987885 
	C221.015900,309.987885 220.998642,310.000000 221.134552,310.194702 
	C221.480789,310.643921 221.736679,310.838501 222.038177,310.973145 
	C222.038177,310.973145 222.000122,311.000519 222.108124,311.178802 
	C222.375717,311.603912 222.568176,311.821655 222.793503,312.010315 
z"/>
<path fill="#EB5C27" opacity="1.000000" stroke="none" 
	d="
M278.952728,313.936920 
	C279.399323,312.714386 279.845917,311.491852 280.978088,310.123627 
	C283.426056,310.739349 286.551544,308.013580 287.024567,312.073486 
	C285.784943,314.120605 284.545349,316.167755 283.272095,318.806702 
	C283.112762,319.936401 282.987030,320.474274 282.861328,321.012177 
	C282.264465,320.076019 281.667603,319.139862 281.070740,318.203705 
	C280.816742,318.169006 280.591248,318.063171 280.430054,317.443787 
	C279.981689,316.354736 279.497528,315.708038 279.013367,315.061371 
	C279.013367,315.061371 278.945740,315.052460 278.967590,314.756897 
	C278.977173,314.286530 278.964935,314.111725 278.952728,313.936920 
z"/>
<path fill="#BF5126" opacity="1.000000" stroke="none" 
	d="
M228.749664,317.169800 
	C230.655853,316.989929 232.319992,316.990662 234.399414,316.974579 
	C234.814697,316.957794 235.002884,317.388489 235.003571,317.866669 
	C235.004242,318.344849 234.946884,318.840698 234.946884,318.840698 
	C234.993927,325.086700 232.704010,327.216980 226.711990,326.563477 
	C226.437653,323.320221 234.690231,321.789703 228.749664,317.169800 
z"/>
<path fill="#A05536" opacity="1.000000" stroke="none" 
	d="
M248.309006,365.814453 
	C249.026657,371.854584 248.686584,372.173950 242.334930,371.627167 
	C242.334930,369.268036 242.334930,366.876923 242.334930,363.532074 
	C244.567413,364.315125 246.293991,364.920685 248.309006,365.814453 
z"/>
<path fill="#D45B29" opacity="1.000000" stroke="none" 
	d="
M213.663452,313.902893 
	C214.954147,314.739471 215.908020,315.477386 216.945343,316.527283 
	C215.242035,317.201355 213.455246,317.563416 211.301849,317.506439 
	C209.154724,311.265839 208.034134,310.513000 204.934784,313.056183 
	C204.009415,311.753357 203.084045,310.450562 202.142075,309.124359 
	C206.704544,307.517212 209.511459,308.720612 213.663452,313.902893 
z"/>
<path fill="#BF5126" opacity="1.000000" stroke="none" 
	d="
M298.291931,322.749756 
	C296.530548,321.203247 295.079712,319.586945 293.529053,317.859436 
	C294.019592,317.655823 294.737549,317.357788 296.118500,317.049072 
	C297.533691,316.994904 298.285919,316.951385 299.396545,316.986023 
	C301.180847,317.386017 302.606750,317.707916 304.032654,318.029785 
	C303.771637,319.927521 303.510620,321.825287 303.218506,323.949158 
	C301.691254,323.529236 300.146820,323.104584 298.291931,322.749756 
z"/>
<path fill="#E0A636" opacity="1.000000" stroke="none" 
	d="
M323.327820,251.995453 
	C323.345001,248.776627 323.715332,245.346939 324.109070,241.499207 
	C324.232208,235.585770 324.380859,230.090607 324.405609,224.594879 
	C324.414459,222.628799 324.123718,220.661392 323.976685,218.236633 
	C327.300659,227.633804 326.455475,237.599808 324.742004,247.579681 
	C324.498077,249.000168 324.039978,250.383881 323.327820,251.995453 
z"/>
<path fill="#A05536" opacity="1.000000" stroke="none" 
	d="
M266.562103,317.914307 
	C266.950775,317.889587 267.047333,318.366486 267.082275,318.607422 
	C263.090942,321.844421 258.576965,324.377014 255.170013,327.961731 
	C251.463348,331.861786 250.451996,332.273834 247.161804,327.246338 
	C247.295059,326.732605 247.606903,326.401978 247.606903,326.401978 
	C248.640289,327.595459 249.673660,328.788971 250.846283,330.143280 
	C255.557571,325.268158 258.473846,318.527374 266.562103,317.914307 
z"/>
<path fill="#A05536" opacity="1.000000" stroke="none" 
	d="
M270.966675,370.208954 
	C270.940247,368.031586 270.940247,366.254883 270.940247,364.267029 
	C273.034760,364.267029 274.633179,364.267029 276.624512,364.267029 
	C276.624512,366.525146 276.624512,368.753784 276.624512,370.030029 
	C275.210602,370.511597 273.975128,371.053406 272.682953,371.311218 
	C272.186127,371.410339 271.560211,370.862579 270.966675,370.208954 
z"/>
<path fill="#D45B29" opacity="1.000000" stroke="none" 
	d="
M172.259979,321.847656 
	C172.866455,320.324036 173.703751,318.866608 173.956085,318.427399 
	C174.176819,315.739227 174.320526,313.989258 174.754776,312.109253 
	C175.857574,312.207489 176.669830,312.435760 177.755432,312.331665 
	C178.028763,311.999268 178.005737,311.935974 177.663361,312.219727 
	C177.897644,313.968201 178.474289,315.432922 179.050934,316.897614 
	C179.050934,316.897614 179.003357,317.360504 178.991974,317.592896 
	C178.677277,318.039978 178.373962,318.254608 177.650757,318.802948 
	C176.479752,320.027649 175.728638,320.918701 174.977524,321.809723 
	C174.977524,321.809723 174.530914,321.948578 174.022720,321.984253 
	C173.328308,322.024536 173.142075,322.029114 172.955826,322.033722 
	C172.955826,322.033722 172.490799,321.913818 172.259979,321.847656 
z"/>
<path fill="#EB5C27" opacity="1.000000" stroke="none" 
	d="
M304.017639,318.018250 
	C302.606750,317.707916 301.180847,317.386017 299.387939,316.727875 
	C298.999023,316.220154 298.977112,316.048706 298.903076,315.696167 
	C298.703461,315.296600 298.502228,315.153656 298.256134,314.654968 
	C298.193756,313.796509 298.122498,313.369415 298.051239,312.942291 
	C298.051239,312.942291 297.996094,312.905853 297.980347,312.934387 
	C300.420868,312.166687 302.877075,311.370453 305.707184,310.453003 
	C305.707184,311.959869 305.707184,313.771118 305.166016,315.994293 
	C304.425568,316.948914 304.226257,317.491608 304.026978,318.034302 
	C304.026978,318.034302 304.002594,318.006744 304.017639,318.018250 
z"/>
<path fill="#BF5126" opacity="1.000000" stroke="none" 
	d="
M218.757065,366.788269 
	C219.545807,371.476837 216.557159,372.117371 213.597382,371.603729 
	C212.455353,371.405579 211.704788,368.951660 210.526321,367.142334 
	C214.164917,366.834076 216.438843,366.641418 218.757065,366.788269 
z"/>
<path fill="#D45B29" opacity="1.000000" stroke="none" 
	d="
M280.867737,318.517029 
	C281.667603,319.139862 282.264465,320.076019 282.861328,321.012177 
	C282.987030,320.474274 283.112762,319.936401 283.151917,319.126923 
	C284.589966,320.912598 286.114532,322.969910 287.788818,325.229248 
	C280.749817,326.563232 279.236725,325.043854 280.867737,318.517029 
z"/>
<path fill="#A05536" opacity="1.000000" stroke="none" 
	d="
M285.976990,368.697815 
	C286.513397,366.955627 287.001068,365.586243 287.488708,364.216858 
	C287.921295,364.023590 288.353882,363.830292 288.786469,363.637024 
	C289.997009,366.121277 291.207550,368.605560 292.324097,370.896973 
	C289.620453,370.896973 287.671692,370.896973 285.480316,370.896973 
	C285.515839,370.752136 285.722046,369.911407 285.976990,368.697815 
z"/>
<path fill="#A05536" opacity="1.000000" stroke="none" 
	d="
M230.652618,364.383728 
	C232.023209,366.797272 233.075073,369.017700 234.199539,371.391388 
	C231.554398,371.174774 229.581619,371.013245 226.592194,370.768463 
	C227.757736,368.719452 229.045837,366.455048 230.652618,364.383728 
z"/>
<path fill="#BF5126" opacity="1.000000" stroke="none" 
	d="
M157.039291,306.950134 
	C151.331512,308.118103 150.603348,304.983215 151.546188,299.994690 
	C153.780014,301.943146 157.997955,301.626160 156.951569,306.651428 
	C156.975082,307.026154 157.018448,306.975922 157.039291,306.950134 
z"/>
<path fill="#A05536" opacity="1.000000" stroke="none" 
	d="
M262.678894,371.360168 
	C260.782715,371.372955 259.060333,371.068756 256.704956,370.652771 
	C257.286591,368.988068 258.175903,366.442749 259.065247,363.897430 
	C259.590118,363.920898 260.114990,363.944366 260.639862,363.967834 
	C261.377472,366.326294 262.115112,368.684723 262.678894,371.360168 
z"/>
<path fill="#D45B29" opacity="1.000000" stroke="none" 
	d="
M259.921509,300.325897 
	C261.460571,300.329712 262.887115,300.663879 264.679138,301.039307 
	C262.393005,303.262482 259.741394,305.444397 257.089813,307.626343 
	C256.709442,307.214783 256.329041,306.803253 255.948669,306.391724 
	C257.235443,304.479889 258.522186,302.568085 259.921509,300.325897 
z"/>
<path fill="#D45B29" opacity="1.000000" stroke="none" 
	d="
M314.106689,318.042358 
	C313.583557,319.332001 313.060425,320.621613 312.058685,323.091125 
	C311.086243,321.043732 310.558136,319.931854 309.937195,318.103821 
	C309.877625,315.554016 309.910858,313.720306 309.944122,311.886627 
	C309.944122,311.886627 310.006348,311.975494 310.216858,312.171082 
	C311.653809,314.258575 312.880249,316.150482 314.106689,318.042358 
z"/>
<path fill="#BF5126" opacity="1.000000" stroke="none" 
	d="
M314.407043,318.036774 
	C312.880249,316.150482 311.653809,314.258575 310.176697,312.134949 
	C312.028412,310.543640 314.106354,308.217224 316.690552,311.897095 
	C317.049164,312.052704 317.011444,312.005066 316.740601,311.723969 
	C314.022095,314.736206 313.933289,315.646698 315.938110,316.893585 
	C315.932251,317.107605 315.926392,317.321594 315.907959,317.856201 
	C315.499359,318.128296 315.103363,318.079742 314.407043,318.036774 
z"/>
<path fill="#E55D1C" opacity="1.000000" stroke="none" 
	d="
M204.933929,313.027466 
	C208.034134,310.513000 209.154724,311.265839 210.958908,317.445007 
	C210.676666,318.027161 210.370728,318.251709 209.704834,318.723602 
	C209.344879,318.970947 208.857956,318.917633 208.857956,318.917633 
	C208.163132,318.271545 207.468307,317.625458 206.466690,316.942322 
	C206.159912,316.905304 206.094299,316.475403 206.040009,315.929321 
	C205.618164,314.598114 205.250641,313.813019 204.883118,313.027924 
	C204.883118,313.027924 204.933090,312.998718 204.933929,313.027466 
z"/>
<path fill="#D45B29" opacity="1.000000" stroke="none" 
	d="
M275.300812,312.731781 
	C275.887543,307.901978 272.404785,308.976166 269.332184,308.951721 
	C272.043396,307.763458 275.134613,306.598389 278.225861,305.433319 
	C278.368469,305.860352 278.511078,306.287384 278.653687,306.714447 
	C277.649780,308.687286 276.645844,310.660156 275.300812,312.731781 
z"/>
<path fill="#BF5126" opacity="1.000000" stroke="none" 
	d="
M232.872406,308.602539 
	C230.749329,309.125458 228.433258,309.335327 226.021851,309.804962 
	C224.866119,309.188873 223.805710,308.313080 222.745285,307.437256 
	C223.016800,306.862274 223.288315,306.287323 223.559830,305.712372 
	C226.599686,306.571411 229.639542,307.430450 232.872406,308.602539 
z"/>
<path fill="#D45B29" opacity="1.000000" stroke="none" 
	d="
M287.338287,311.911438 
	C286.551544,308.013580 283.426056,310.739349 281.282806,309.971497 
	C283.638153,308.737732 286.374329,307.510406 289.110535,306.283051 
	C289.376221,306.731964 289.641937,307.180878 289.907623,307.629761 
	C289.155762,309.002960 288.403870,310.376160 287.338287,311.911438 
z"/>
<path fill="#BF5126" opacity="1.000000" stroke="none" 
	d="
M309.560669,311.952148 
	C309.910858,313.720306 309.877625,315.554016 309.896576,317.741211 
	C308.256958,318.069305 306.565094,318.043884 304.450134,318.026367 
	C304.226257,317.491608 304.425568,316.948914 304.856201,316.226807 
	C306.045105,315.802795 307.325104,315.851532 307.880463,315.241028 
	C308.611023,314.437958 308.771576,313.116333 309.560669,311.952148 
z"/>
<path fill="#F8591E" opacity="1.000000" stroke="none" 
	d="
M265.981201,298.991516 
	C266.065338,297.612152 266.149445,296.232758 266.233582,294.853394 
	C266.805450,295.375793 267.377350,295.898224 267.977173,296.740875 
	C268.005096,297.061096 267.929016,297.497192 267.692841,297.862610 
	C267.239868,298.454071 267.100922,298.720703 267.039825,299.027893 
	C267.039825,299.027893 267.002563,299.006317 266.755249,298.998596 
	C266.332367,298.991058 266.156769,298.991302 265.981201,298.991516 
z"/>
<path fill="#A05536" opacity="1.000000" stroke="none" 
	d="
M235.302032,318.920471 
	C234.946884,318.840698 235.004242,318.344849 235.042816,318.098358 
	C237.454941,319.025177 239.828491,320.198486 242.086639,321.704529 
	C241.971222,322.037262 242.006409,321.990631 242.006409,321.990662 
	C239.889999,320.993835 237.773590,319.997009 235.302032,318.920471 
z"/>
<path fill="#E0A636" opacity="1.000000" stroke="none" 
	d="
M312.084167,219.308594 
	C312.778381,221.990112 313.397583,225.092911 313.982574,228.636002 
	C313.301971,225.960815 312.655548,222.845337 312.084167,219.308594 
z"/>
<path fill="#E0A636" opacity="1.000000" stroke="none" 
	d="
M314.787384,228.991974 
	C314.921356,231.500687 314.763611,234.014328 314.387970,236.806412 
	C314.107513,234.701523 314.044952,232.318222 313.948517,229.493256 
	C314.108307,229.033386 314.301971,229.015167 314.787384,228.991974 
z"/>
<path fill="#E0A636" opacity="1.000000" stroke="none" 
	d="
M313.650146,238.012573 
	C313.486084,241.007721 312.965057,244.224365 312.165497,247.696777 
	C312.355713,244.713043 312.824493,241.473572 313.650146,238.012573 
z"/>
<path fill="#A05536" opacity="1.000000" stroke="none" 
	d="
M247.125671,326.884094 
	C245.382782,325.557556 243.809265,324.079498 242.121078,322.296051 
	C242.006409,321.990631 241.971222,322.037262 241.953445,322.061707 
	C243.686081,323.348999 245.436493,324.611816 247.396896,326.138306 
	C247.606903,326.401978 247.295059,326.732605 247.125671,326.884094 
z"/>
<path fill="#D45B29" opacity="1.000000" stroke="none" 
	d="
M267.621094,310.080994 
	C267.761810,311.751007 267.577118,313.584747 267.173828,315.742188 
	C267.068726,314.125519 267.182190,312.185120 267.621094,310.080994 
z"/>
<path fill="#E0A636" opacity="1.000000" stroke="none" 
	d="
M323.900879,216.770828 
	C323.233429,215.331512 322.640686,213.499115 322.063477,211.265366 
	C322.711212,212.701920 323.343414,214.539841 323.900879,216.770828 
z"/>
<path fill="#EB5C27" opacity="1.000000" stroke="none" 
	d="
M208.583633,318.941040 
	C208.857956,318.917633 209.344879,318.970947 209.589142,318.988892 
	C209.202698,320.292847 208.571991,321.578827 207.941284,322.864838 
	C207.654541,322.760345 207.367813,322.655884 207.081085,322.551422 
	C207.081085,321.616364 207.081085,320.681305 207.143982,319.391174 
	C207.574341,319.012207 207.941833,318.988312 208.583633,318.941040 
z"/>
<path fill="#BF5126" opacity="1.000000" stroke="none" 
	d="
M175.358002,321.879272 
	C175.728638,320.918701 176.479752,320.027649 177.529602,319.058441 
	C177.131714,319.969757 176.435104,320.959259 175.358002,321.879272 
z"/>
<path fill="#D45B29" opacity="1.000000" stroke="none" 
	d="
M220.883057,309.670593 
	C219.715347,309.515533 218.414780,309.043152 217.068634,308.272827 
	C218.265442,308.434357 219.507828,308.893829 220.883057,309.670593 
z"/>
<path fill="#D45B29" opacity="1.000000" stroke="none" 
	d="
M213.752380,307.245911 
	C214.043167,307.971863 214.034760,308.623444 214.004181,309.598938 
	C213.153290,309.424072 212.324600,308.925262 211.258499,308.283600 
	C212.097702,307.858337 212.775436,307.514923 213.752380,307.245911 
z"/>
<path fill="#BF5126" opacity="1.000000" stroke="none" 
	d="
M235.337646,315.854523 
	C235.030380,314.623535 235.029358,313.186493 235.047485,311.317932 
	C235.259064,312.473785 235.451477,314.061127 235.337646,315.854523 
z"/>
<path fill="#E0A636" opacity="1.000000" stroke="none" 
	d="
M262.908997,182.964447 
	C262.926880,182.789017 262.944794,182.613602 263.005646,182.177185 
	C263.975922,182.377670 264.903290,182.839127 265.961365,183.598801 
	C266.092041,183.897003 265.936523,184.070358 265.522644,184.088684 
	C264.426361,184.013855 263.743958,183.920700 263.034637,183.609802 
	C263.007690,183.392044 262.908997,182.964447 262.908997,182.964447 
z"/>
<path fill="#D45B29" opacity="1.000000" stroke="none" 
	d="
M279.020874,315.368500 
	C279.497528,315.708038 279.981689,316.354736 280.374817,317.329315 
	C279.865356,316.996674 279.446899,316.336151 279.020874,315.368500 
z"/>
<path fill="#BF5126" opacity="1.000000" stroke="none" 
	d="
M204.916077,313.375336 
	C205.250641,313.813019 205.618164,314.598114 205.987411,315.718323 
	C205.642426,315.276550 205.295731,314.499664 204.916077,313.375336 
z"/>
<path fill="#DC5725" opacity="1.000000" stroke="none" 
	d="
M214.890274,139.612686 
	C214.608780,139.898193 214.233978,139.936249 213.576355,139.955368 
	C213.794678,139.746033 214.295807,139.555634 214.890274,139.612686 
z"/>
<path fill="#D45B29" opacity="1.000000" stroke="none" 
	d="
M222.304077,315.086670 
	C222.249619,314.851196 222.445862,314.570007 222.831573,314.113281 
	C222.865601,314.305481 222.710190,314.673218 222.304077,315.086670 
z"/>
<path fill="#E0A636" opacity="1.000000" stroke="none" 
	d="
M322.282410,255.048416 
	C322.133026,254.606796 322.296204,254.006088 322.643982,253.148499 
	C322.750671,253.557495 322.672821,254.223419 322.282410,255.048416 
z"/>
<path fill="#E27A26" opacity="1.000000" stroke="none" 
	d="
M294.785767,272.111633 
	C294.862701,272.399780 294.634399,272.599609 294.163971,272.854248 
	C294.141846,272.652405 294.328064,272.357117 294.785767,272.111633 
z"/>
<path fill="#D45B29" opacity="1.000000" stroke="none" 
	d="
M265.303101,300.998779 
	C265.198273,300.769928 265.402588,300.519745 265.861298,300.177124 
	C265.897186,300.340851 265.729370,300.638458 265.303101,300.998779 
z"/>
<path fill="#E0A636" opacity="1.000000" stroke="none" 
	d="
M261.056244,180.749847 
	C260.871765,180.884430 260.586700,180.728714 260.141296,180.371002 
	C260.285278,180.303497 260.610199,180.400345 261.056244,180.749847 
z"/>
<path fill="#E0A636" opacity="1.000000" stroke="none" 
	d="
M262.992584,181.715210 
	C262.796478,181.830002 262.503662,181.668228 262.025909,181.332321 
	C262.192596,181.251678 262.544250,181.345154 262.992584,181.715210 
z"/>
<path fill="#D45B29" opacity="1.000000" stroke="none" 
	d="
M265.992981,299.259094 
	C266.156769,298.991302 266.332367,298.991058 266.770386,299.014771 
	C266.876160,299.333771 266.719574,299.628876 266.312500,299.991608 
	C266.042999,299.881744 266.023895,299.704224 265.992981,299.259094 
z"/>
<path fill="#D45B29" opacity="1.000000" stroke="none" 
	d="
M267.294678,298.949646 
	C267.100922,298.720703 267.239868,298.454071 267.625854,298.073608 
	C267.713226,298.236572 267.631378,298.553986 267.294678,298.949646 
z"/>
<path fill="#D45B29" opacity="1.000000" stroke="none" 
	d="
M216.947754,307.744751 
	C216.750702,307.906250 216.506058,307.775055 216.149521,307.432007 
	C216.367462,307.082153 216.654968,307.159485 216.947754,307.744751 
z"/>
<path fill="#E27A26" opacity="1.000000" stroke="none" 
	d="
M292.705750,274.023254 
	C292.817444,274.255859 292.617126,274.506104 292.153442,274.838074 
	C292.115631,274.672974 292.283508,274.380005 292.705750,274.023254 
z"/>
<path fill="#E27A26" opacity="1.000000" stroke="none" 
	d="
M293.704193,273.020447 
	C293.817352,273.250671 293.620697,273.500702 293.162842,273.833008 
	C293.123413,273.668884 293.287659,273.377167 293.704193,273.020447 
z"/>
<path fill="#BF5126" opacity="1.000000" stroke="none" 
	d="
M234.038330,309.687347 
	C233.862366,309.738403 233.593857,309.538544 233.186890,309.126221 
	C233.347549,309.088013 233.646683,309.262207 234.038330,309.687347 
z"/>
<path fill="#D45B29" opacity="1.000000" stroke="none" 
	d="
M221.946365,310.735901 
	C221.736679,310.838501 221.480789,310.643921 221.139496,310.184937 
	C221.290527,310.153229 221.572540,310.325958 221.946365,310.735901 
z"/>
<path fill="#D45B29" opacity="1.000000" stroke="none" 
	d="
M222.826553,311.754761 
	C222.568176,311.821655 222.375717,311.603912 222.121948,311.160004 
	C222.305038,311.141693 222.582321,311.320435 222.826553,311.754761 
z"/>
<path fill="#E0A636" opacity="1.000000" stroke="none" 
	d="
M321.266663,257.051575 
	C321.141449,256.855133 321.300293,256.530090 321.644348,256.002380 
	C321.736603,256.174133 321.643677,256.548584 321.266663,257.051575 
z"/>
<path fill="#BF5126" opacity="1.000000" stroke="none" 
	d="
M173.032806,322.265961 
	C173.142075,322.029114 173.328308,322.024536 173.793610,322.031128 
	C173.751724,322.194275 173.430771,322.346252 173.032806,322.265961 
z"/>
<path fill="#D45B29" opacity="1.000000" stroke="none" 
	d="
M278.742645,314.028198 
	C278.964935,314.111725 278.977173,314.286530 278.971313,314.723022 
	C278.719849,314.816315 278.486511,314.647980 278.253143,314.479675 
	C278.346283,314.359619 278.439423,314.239563 278.742645,314.028198 
z"/>
<path fill="#F8591E" opacity="1.000000" stroke="none" 
	d="
M272.019043,265.975281 
	C272.447571,267.871887 272.856293,269.792633 273.268890,271.712616 
	C273.506226,272.817169 273.894958,273.911652 273.962219,275.025940 
	C274.133911,277.871277 271.227722,280.445831 273.440582,283.774597 
	C273.763489,284.260315 269.805206,287.592010 267.453827,289.988037 
	C266.371552,285.927551 265.479370,282.580109 264.289215,279.119263 
	C263.991272,279.005890 263.957581,279.068268 263.957581,279.068268 
	C263.092163,275.408417 262.264618,271.738770 261.321747,268.098969 
	C261.174774,267.531494 260.473022,266.648041 260.077026,266.673553 
	C253.968643,267.067932 253.433884,260.000153 248.580261,258.691498 
	C254.183914,252.926682 255.924332,253.012787 260.338379,258.925812 
	C263.123566,262.656830 265.893646,266.428131 271.699097,265.992706 
	C272.048523,265.962738 272.000854,265.999115 272.019043,265.975281 
z"/>
<path fill="#F8591E" opacity="1.000000" stroke="none" 
	d="
M230.985519,243.008911 
	C227.268677,242.771164 223.551819,242.533417 219.301178,242.261520 
	C219.228622,242.065384 218.842560,241.021652 218.644135,240.485199 
	C216.919052,240.381561 214.934143,240.859726 214.189606,240.108521 
	C211.692490,237.589066 209.638016,234.630890 207.189774,231.559189 
	C208.352997,231.559189 210.443909,230.953476 211.844498,231.679459 
	C215.243896,233.441559 218.267456,235.914108 221.564896,237.896774 
	C222.495773,238.456467 223.992798,238.036758 224.979721,238.548920 
	C227.051208,239.623901 228.956543,241.019104 230.964661,242.641647 
	C230.999252,243.000443 230.985519,243.008911 230.985519,243.008911 
z"/>
<path fill="#F8591E" opacity="1.000000" stroke="none" 
	d="
M240.395096,248.588226 
	C243.651245,249.120468 246.586487,249.523514 250.138550,250.011276 
	C249.368378,251.647675 249.227188,252.555527 248.835754,252.680679 
	C246.301712,253.490936 247.791199,259.518951 243.426544,257.312897 
	C239.584564,255.371078 236.207840,252.463852 237.307648,247.191391 
	C237.460449,246.458878 237.428299,245.687790 237.567139,243.731659 
	C238.784775,246.027695 239.429474,247.243362 240.395096,248.588226 
z"/>
<path fill="#000000" opacity="1.000000" stroke="none" 
	d="
M263.960205,279.022949 
	C263.610016,284.804779 263.334259,290.572662 262.923065,296.330872 
	C262.864288,297.153931 262.149933,297.930176 261.282074,298.669434 
	C261.776550,291.059082 264.058289,283.399231 259.694061,275.771667 
	C259.812042,275.169006 259.946075,275.044830 260.080139,274.920624 
	C261.141235,276.274933 262.202332,277.629211 263.610504,279.025879 
	C263.957581,279.068268 263.991272,279.005890 263.960205,279.022949 
z"/>
<path fill="#F8591E" opacity="1.000000" stroke="none" 
	d="
M231.004654,242.995331 
	C231.866959,243.705887 232.723846,244.421524 233.580750,245.137177 
	C232.185074,246.631653 230.826660,248.166641 229.326172,249.547211 
	C229.199921,249.663391 227.514252,248.515640 227.579910,248.340836 
	C228.076019,247.020233 228.794846,245.775803 229.521332,244.553467 
	C229.759354,244.152954 230.225647,243.888138 230.786530,243.285095 
	C230.985519,243.008911 230.999252,243.000443 231.004654,242.995331 
z"/>
<path fill="#F8591E" opacity="1.000000" stroke="none" 
	d="
M206.830841,221.709854 
	C207.869354,224.032745 208.781876,226.067200 209.694382,228.101639 
	C209.269760,228.270081 208.845139,228.438538 208.420532,228.606979 
	C206.561737,226.499084 203.958435,224.693680 205.879593,221.058517 
	C205.908859,221.003128 206.195450,221.036240 206.330688,221.097321 
	C206.474792,221.162369 206.581680,221.309891 206.830841,221.709854 
z"/>
<path fill="#000000" opacity="1.000000" stroke="none" 
	d="
M235.503906,255.180756 
	C237.148926,256.017853 238.424652,256.662018 239.661896,257.373169 
	C239.821243,257.464752 239.780914,257.903687 239.952118,258.816040 
	C237.360504,257.573914 235.131638,256.505615 232.902756,255.437332 
	C233.012619,255.134476 233.122498,254.831635 233.232361,254.528778 
	C233.862473,254.688705 234.492584,254.848618 235.503906,255.180756 
z"/>
<path fill="#000000" opacity="1.000000" stroke="none" 
	d="
M255.380371,270.871460 
	C254.523178,269.986328 254.011780,269.367706 253.500397,268.749115 
	C253.854248,268.482208 254.208099,268.215302 254.561951,267.948395 
	C255.321091,268.965820 256.085968,269.979126 256.823975,271.011658 
	C256.864746,271.068756 256.659576,271.415375 256.607574,271.406281 
	C256.307343,271.353668 256.018738,271.234589 255.380371,270.871460 
z"/>
<path fill="#000000" opacity="1.000000" stroke="none" 
	d="
M214.083771,242.901382 
	C215.151138,243.544769 216.218491,244.188156 217.299255,245.268250 
	C217.182602,245.833878 217.052567,245.962814 216.922516,246.091751 
	C215.856064,245.445419 214.789612,244.799103 213.708084,243.718689 
	C213.823273,243.156860 213.953522,243.029114 214.083771,242.901382 
z"/>
<path fill="#000000" opacity="1.000000" stroke="none" 
	d="
M244.080933,261.403076 
	C242.450882,260.596680 241.208084,259.988708 239.965271,259.380707 
	C240.228851,258.996490 240.492432,258.612274 240.756012,258.228058 
	C241.993408,259.352539 243.230789,260.477020 244.080933,261.403076 
z"/>
<path fill="#000000" opacity="1.000000" stroke="none" 
	d="
M228.865585,252.259583 
	C230.500748,252.515961 231.841812,252.978638 233.182861,253.441315 
	C232.998291,253.860611 232.813721,254.279892 232.629135,254.699188 
	C231.276581,253.954758 229.924042,253.210327 228.865585,252.259583 
z"/>
<path fill="#F8591E" opacity="1.000000" stroke="none" 
	d="
M223.705475,246.577667 
	C223.304459,246.307510 223.110458,245.984909 222.916458,245.662292 
	C223.197708,245.584824 223.478973,245.507355 223.760223,245.429871 
	C223.810974,245.794983 223.861740,246.160095 223.705475,246.577667 
z"/>
<path fill="#000000" opacity="1.000000" stroke="none" 
	d="
M259.472534,275.474518 
	C258.759216,274.800964 258.251343,273.946014 257.743469,273.091095 
	C257.987061,272.887939 258.230621,272.684784 258.474182,272.481628 
	C258.977264,273.036530 259.480347,273.591431 260.031799,274.533478 
	C259.946075,275.044830 259.812042,275.169006 259.472534,275.474518 
z"/>
<path fill="#000000" opacity="1.000000" stroke="none" 
	d="
M245.453888,262.567139 
	C246.034134,262.234497 246.916351,262.234497 247.798584,262.234497 
	C247.736526,262.634705 247.674454,263.034882 247.612381,263.435089 
	C246.993546,263.256653 246.374710,263.078217 245.453888,262.567139 
z"/>
<path fill="#000000" opacity="1.000000" stroke="none" 
	d="
M213.493622,243.472046 
	C212.486893,243.192154 211.679550,242.724838 210.872208,242.257538 
	C210.941803,242.019806 211.011398,241.782089 211.080994,241.544357 
	C211.945892,241.772461 212.810791,242.000565 213.879730,242.565018 
	C213.953522,243.029114 213.823273,243.156860 213.493622,243.472046 
z"/>
<path fill="#000000" opacity="1.000000" stroke="none" 
	d="
M217.511597,245.515549 
	C218.342743,245.688599 218.974930,246.051056 220.402023,246.869263 
	C218.760986,246.767044 217.985611,246.718735 217.066376,246.381104 
	C217.052567,245.962814 217.182602,245.833878 217.511597,245.515549 
z"/>
<path fill="#000000" opacity="1.000000" stroke="none" 
	d="
M249.242355,265.103210 
	C248.773209,264.485352 248.728165,264.018646 248.683121,263.551971 
	C249.383789,263.910522 250.084442,264.269073 250.785110,264.627625 
	C250.412231,264.836578 250.039352,265.045502 249.242355,265.103210 
z"/>
<path fill="#000000" opacity="1.000000" stroke="none" 
	d="
M204.452896,234.619446 
	C204.880295,234.900894 204.990921,235.361099 205.101547,235.821320 
	C204.779739,235.480286 204.457932,235.139236 204.452896,234.619446 
z"/>
<path fill="#000000" opacity="1.000000" stroke="none" 
	d="
M264.672638,351.653870 
	C261.323700,351.794006 259.378082,350.443542 260.433929,347.297119 
	C261.825348,343.150635 264.815399,344.079956 269.025604,346.260834 
	C267.559418,348.153839 266.283630,349.801025 264.672638,351.653870 
z"/>
<path fill="#EE9115" opacity="1.000000" stroke="none" 
	d="
M313.589172,254.087219 
	C314.044952,254.519547 314.320679,255.111557 314.596436,255.703568 
	C314.310944,255.806717 314.025452,255.909851 313.739929,256.013000 
	C313.629669,255.424316 313.519409,254.835617 313.589172,254.087219 
z"/>
<path fill="#000000" opacity="1.000000" stroke="none" 
	d="
M179.412506,316.919312 
	C178.474289,315.432922 177.897644,313.968201 177.631775,312.231476 
	C178.235977,313.736572 183.090302,313.836823 179.412506,316.919312 
z"/>
<path fill="#000000" opacity="1.000000" stroke="none" 
	d="
M186.228973,316.324585 
	C185.994781,314.876343 185.925705,313.766998 185.856628,312.657654 
	C186.230728,312.635193 186.604828,312.612732 186.978928,312.590302 
	C186.783981,313.948029 186.589050,315.305756 186.228973,316.324585 
z"/>
<path fill="#F0A013" opacity="1.000000" stroke="none" 
	d="
M262.560394,183.014801 
	C262.908997,182.964447 263.007690,183.392044 263.043945,184.029846 
	C263.724274,190.759048 264.165649,196.881165 265.083344,202.931061 
	C265.701172,207.004013 266.992035,210.974884 267.981781,214.991425 
	C267.989868,223.340683 267.997955,231.689957 267.997070,240.504211 
	C267.017120,236.800430 265.648895,232.678726 265.148132,228.454193 
	C263.512207,214.653915 262.144867,200.820663 260.831543,186.985153 
	C260.712738,185.733429 261.724854,184.374359 262.560394,183.014801 
z"/>
<path fill="#000000" opacity="1.000000" stroke="none" 
	d="
M315.977722,316.526947 
	C313.933289,315.646698 314.022095,314.736206 316.770935,311.730011 
	C316.720551,313.398193 316.368927,314.779266 315.977722,316.526947 
z"/>
<path fill="#000000" opacity="1.000000" stroke="none" 
	d="
M324.457458,312.505920 
	C323.983459,313.949066 323.316284,315.182159 322.649109,316.415253 
	C322.407471,316.328827 322.165863,316.242432 321.924225,316.156006 
	C322.375763,314.848846 322.827301,313.541656 323.572601,312.060669 
	C323.999023,312.023193 324.131653,312.159546 324.457458,312.505920 
z"/>
<path fill="#000000" opacity="1.000000" stroke="none" 
	d="
M298.955170,315.877258 
	C298.977112,316.048706 298.999023,316.220154 299.029541,316.649780 
	C298.285919,316.951385 297.533691,316.994904 296.406799,316.994781 
	C296.493439,315.699585 296.954803,314.447998 297.733704,313.069336 
	C298.122498,313.369415 298.193756,313.796509 298.268677,314.857269 
	C298.425110,315.751801 298.652710,315.880585 298.955170,315.877258 
z"/>
<path fill="#F6AF0D" opacity="1.000000" stroke="none" 
	d="
M267.990906,214.523773 
	C266.992035,210.974884 265.701172,207.004013 265.083344,202.931061 
	C264.165649,196.881165 263.724274,190.759048 263.070862,184.247620 
	C263.743958,183.920700 264.426361,184.013855 265.444794,184.175308 
	C266.534760,186.528641 267.858887,188.794083 267.938110,191.102264 
	C268.200562,198.745239 268.014191,206.403641 267.990906,214.523773 
z"/>
<path fill="#BF5126" opacity="1.000000" stroke="none" 
	d="
M298.903076,315.696167 
	C298.652710,315.880585 298.425110,315.751801 298.259796,315.288605 
	C298.502228,315.153656 298.703461,315.296600 298.903076,315.696167 
z"/>
</svg>